G04 Layer: TopLayer*
G04 EasyEDA v6.1.49, Sun, 02 Jun 2019 06:23:37 GMT*
G04 0ed097a208f24fffa70c15424eedaa47,66c5286db96e4661acc7c33619b52065,10*
G04 Gerber Generator version 0.2*
G04 Scale: 100 percent, Rotated: No, Reflected: No *
G04 Dimensions in inches *
G04 leading zeros omitted , absolute positions ,2 integer and 4 decimal *
%FSLAX24Y24*%
%MOIN*%
G90*
G70D02*

%ADD10C,0.010000*%
%ADD11C,0.023622*%
%ADD12C,0.060000*%

%LPD*%
G36*
G01X9853Y9894D02*
G01X146Y9894D01*
G01X134Y9892D01*
G01X129Y9890D01*
G01X119Y9884D01*
G01X115Y9880D01*
G01X109Y9870D01*
G01X107Y9865D01*
G01X105Y9853D01*
G01X105Y146D01*
G01X107Y134D01*
G01X109Y129D01*
G01X115Y119D01*
G01X119Y115D01*
G01X129Y109D01*
G01X134Y107D01*
G01X146Y105D01*
G01X9853Y105D01*
G01X9865Y107D01*
G01X9870Y109D01*
G01X9880Y115D01*
G01X9884Y119D01*
G01X9890Y129D01*
G01X9892Y134D01*
G01X9893Y140D01*
G01X9893Y9859D01*
G01X9892Y9865D01*
G01X9890Y9870D01*
G01X9884Y9880D01*
G01X9880Y9884D01*
G01X9870Y9890D01*
G01X9865Y9892D01*
G01X9853Y9894D01*
G37*

%LPC*%
G36*
G01X2750Y9501D02*
G01X2249Y9501D01*
G01X2238Y9500D01*
G01X2226Y9499D01*
G01X2214Y9496D01*
G01X2203Y9493D01*
G01X2192Y9489D01*
G01X2181Y9484D01*
G01X2161Y9472D01*
G01X2151Y9464D01*
G01X1785Y9098D01*
G01X1777Y9088D01*
G01X1765Y9068D01*
G01X1760Y9057D01*
G01X1756Y9046D01*
G01X1753Y9035D01*
G01X1750Y9023D01*
G01X1749Y9011D01*
G01X1748Y9000D01*
G01X1748Y1400D01*
G01X1750Y1376D01*
G01X1753Y1364D01*
G01X1756Y1353D01*
G01X1760Y1342D01*
G01X1765Y1331D01*
G01X1777Y1311D01*
G01X1785Y1301D01*
G01X2151Y935D01*
G01X2161Y927D01*
G01X2181Y915D01*
G01X2192Y910D01*
G01X2203Y906D01*
G01X2214Y903D01*
G01X2226Y900D01*
G01X2238Y899D01*
G01X2249Y898D01*
G01X2700Y898D01*
G01X2711Y899D01*
G01X2723Y900D01*
G01X2735Y903D01*
G01X2746Y906D01*
G01X2757Y910D01*
G01X2768Y915D01*
G01X2788Y927D01*
G01X2798Y935D01*
G01X3214Y1351D01*
G01X3222Y1361D01*
G01X3234Y1381D01*
G01X3239Y1392D01*
G01X3243Y1403D01*
G01X3246Y1414D01*
G01X3249Y1426D01*
G01X3250Y1438D01*
G01X3251Y1449D01*
G01X3251Y1524D01*
G01X3252Y1530D01*
G01X3254Y1535D01*
G01X3257Y1541D01*
G01X3261Y1545D01*
G01X3271Y1557D01*
G01X3280Y1568D01*
G01X3288Y1581D01*
G01X3295Y1594D01*
G01X3301Y1608D01*
G01X3307Y1621D01*
G01X3311Y1636D01*
G01X3313Y1641D01*
G01X3319Y1651D01*
G01X3323Y1655D01*
G01X3328Y1659D01*
G01X3333Y1661D01*
G01X3338Y1664D01*
G01X3344Y1665D01*
G01X3355Y1665D01*
G01X3361Y1664D01*
G01X3366Y1661D01*
G01X3371Y1659D01*
G01X3376Y1655D01*
G01X3380Y1651D01*
G01X3386Y1641D01*
G01X3388Y1636D01*
G01X3392Y1623D01*
G01X3397Y1610D01*
G01X3402Y1598D01*
G01X3409Y1585D01*
G01X3416Y1574D01*
G01X3432Y1552D01*
G01X3441Y1542D01*
G01X3451Y1532D01*
G01X3461Y1523D01*
G01X3472Y1515D01*
G01X3483Y1508D01*
G01X3495Y1501D01*
G01X3507Y1495D01*
G01X3520Y1489D01*
G01X3546Y1481D01*
G01X3559Y1478D01*
G01X3572Y1476D01*
G01X3600Y1474D01*
G01X3613Y1475D01*
G01X3627Y1476D01*
G01X3640Y1478D01*
G01X3653Y1481D01*
G01X3679Y1489D01*
G01X3692Y1495D01*
G01X3704Y1501D01*
G01X3716Y1508D01*
G01X3727Y1515D01*
G01X3738Y1523D01*
G01X3748Y1532D01*
G01X3758Y1542D01*
G01X3767Y1552D01*
G01X3783Y1574D01*
G01X3790Y1585D01*
G01X3797Y1598D01*
G01X3802Y1610D01*
G01X3807Y1623D01*
G01X3811Y1636D01*
G01X3813Y1641D01*
G01X3819Y1651D01*
G01X3823Y1655D01*
G01X3828Y1659D01*
G01X3833Y1661D01*
G01X3838Y1664D01*
G01X3844Y1665D01*
G01X3855Y1665D01*
G01X3861Y1664D01*
G01X3866Y1661D01*
G01X3871Y1659D01*
G01X3876Y1655D01*
G01X3880Y1651D01*
G01X3886Y1641D01*
G01X3888Y1636D01*
G01X3892Y1623D01*
G01X3897Y1610D01*
G01X3902Y1598D01*
G01X3909Y1585D01*
G01X3916Y1574D01*
G01X3932Y1552D01*
G01X3941Y1542D01*
G01X3951Y1532D01*
G01X3961Y1523D01*
G01X3972Y1515D01*
G01X3983Y1508D01*
G01X3995Y1501D01*
G01X4007Y1495D01*
G01X4020Y1489D01*
G01X4046Y1481D01*
G01X4059Y1478D01*
G01X4072Y1476D01*
G01X4100Y1474D01*
G01X4113Y1475D01*
G01X4127Y1476D01*
G01X4140Y1478D01*
G01X4153Y1481D01*
G01X4179Y1489D01*
G01X4192Y1495D01*
G01X4204Y1501D01*
G01X4216Y1508D01*
G01X4227Y1515D01*
G01X4238Y1523D01*
G01X4248Y1532D01*
G01X4258Y1542D01*
G01X4267Y1552D01*
G01X4283Y1574D01*
G01X4290Y1585D01*
G01X4297Y1598D01*
G01X4302Y1610D01*
G01X4307Y1623D01*
G01X4311Y1636D01*
G01X4313Y1641D01*
G01X4319Y1651D01*
G01X4323Y1655D01*
G01X4328Y1659D01*
G01X4333Y1661D01*
G01X4338Y1664D01*
G01X4344Y1665D01*
G01X4355Y1665D01*
G01X4361Y1664D01*
G01X4366Y1661D01*
G01X4371Y1659D01*
G01X4376Y1655D01*
G01X4380Y1651D01*
G01X4386Y1641D01*
G01X4388Y1636D01*
G01X4392Y1623D01*
G01X4397Y1610D01*
G01X4402Y1598D01*
G01X4409Y1585D01*
G01X4416Y1574D01*
G01X4432Y1552D01*
G01X4441Y1542D01*
G01X4451Y1532D01*
G01X4461Y1523D01*
G01X4472Y1515D01*
G01X4483Y1508D01*
G01X4495Y1501D01*
G01X4507Y1495D01*
G01X4520Y1489D01*
G01X4546Y1481D01*
G01X4559Y1478D01*
G01X4572Y1476D01*
G01X4600Y1474D01*
G01X4613Y1475D01*
G01X4627Y1476D01*
G01X4640Y1478D01*
G01X4653Y1481D01*
G01X4679Y1489D01*
G01X4692Y1495D01*
G01X4704Y1501D01*
G01X4716Y1508D01*
G01X4727Y1515D01*
G01X4738Y1523D01*
G01X4748Y1532D01*
G01X4758Y1542D01*
G01X4767Y1552D01*
G01X4783Y1574D01*
G01X4790Y1585D01*
G01X4797Y1598D01*
G01X4802Y1610D01*
G01X4807Y1623D01*
G01X4811Y1636D01*
G01X4813Y1641D01*
G01X4819Y1651D01*
G01X4823Y1655D01*
G01X4828Y1659D01*
G01X4833Y1661D01*
G01X4838Y1664D01*
G01X4844Y1665D01*
G01X4855Y1665D01*
G01X4861Y1664D01*
G01X4866Y1661D01*
G01X4871Y1659D01*
G01X4876Y1655D01*
G01X4880Y1651D01*
G01X4886Y1641D01*
G01X4888Y1636D01*
G01X4892Y1623D01*
G01X4897Y1610D01*
G01X4902Y1598D01*
G01X4909Y1585D01*
G01X4916Y1574D01*
G01X4932Y1552D01*
G01X4941Y1542D01*
G01X4951Y1532D01*
G01X4961Y1523D01*
G01X4972Y1515D01*
G01X4983Y1508D01*
G01X4995Y1501D01*
G01X5007Y1495D01*
G01X5020Y1489D01*
G01X5046Y1481D01*
G01X5059Y1478D01*
G01X5072Y1476D01*
G01X5100Y1474D01*
G01X5113Y1475D01*
G01X5127Y1476D01*
G01X5140Y1478D01*
G01X5153Y1481D01*
G01X5179Y1489D01*
G01X5192Y1495D01*
G01X5204Y1501D01*
G01X5216Y1508D01*
G01X5227Y1515D01*
G01X5238Y1523D01*
G01X5248Y1532D01*
G01X5258Y1542D01*
G01X5267Y1552D01*
G01X5283Y1574D01*
G01X5290Y1585D01*
G01X5297Y1598D01*
G01X5302Y1610D01*
G01X5307Y1623D01*
G01X5311Y1636D01*
G01X5313Y1641D01*
G01X5319Y1651D01*
G01X5323Y1655D01*
G01X5328Y1659D01*
G01X5333Y1661D01*
G01X5338Y1664D01*
G01X5344Y1665D01*
G01X5355Y1665D01*
G01X5361Y1664D01*
G01X5366Y1661D01*
G01X5371Y1659D01*
G01X5376Y1655D01*
G01X5380Y1651D01*
G01X5386Y1641D01*
G01X5388Y1636D01*
G01X5392Y1623D01*
G01X5397Y1610D01*
G01X5402Y1598D01*
G01X5409Y1585D01*
G01X5416Y1574D01*
G01X5432Y1552D01*
G01X5441Y1542D01*
G01X5451Y1532D01*
G01X5461Y1523D01*
G01X5472Y1515D01*
G01X5483Y1508D01*
G01X5495Y1501D01*
G01X5507Y1495D01*
G01X5520Y1489D01*
G01X5546Y1481D01*
G01X5559Y1478D01*
G01X5572Y1476D01*
G01X5600Y1474D01*
G01X5613Y1475D01*
G01X5627Y1476D01*
G01X5640Y1478D01*
G01X5653Y1481D01*
G01X5679Y1489D01*
G01X5692Y1495D01*
G01X5704Y1501D01*
G01X5716Y1508D01*
G01X5727Y1515D01*
G01X5738Y1523D01*
G01X5748Y1532D01*
G01X5758Y1542D01*
G01X5767Y1552D01*
G01X5783Y1574D01*
G01X5790Y1585D01*
G01X5797Y1598D01*
G01X5802Y1610D01*
G01X5807Y1623D01*
G01X5811Y1636D01*
G01X5813Y1641D01*
G01X5819Y1651D01*
G01X5823Y1655D01*
G01X5828Y1659D01*
G01X5833Y1661D01*
G01X5838Y1664D01*
G01X5844Y1665D01*
G01X5855Y1665D01*
G01X5861Y1664D01*
G01X5866Y1661D01*
G01X5871Y1659D01*
G01X5876Y1655D01*
G01X5880Y1651D01*
G01X5886Y1641D01*
G01X5888Y1636D01*
G01X5892Y1623D01*
G01X5897Y1610D01*
G01X5902Y1598D01*
G01X5908Y1587D01*
G01X5915Y1575D01*
G01X5923Y1564D01*
G01X5939Y1544D01*
G01X5949Y1534D01*
G01X5959Y1525D01*
G01X5969Y1517D01*
G01X5980Y1510D01*
G01X5992Y1503D01*
G01X6003Y1496D01*
G01X6015Y1491D01*
G01X6015Y1730D01*
G01X5859Y1730D01*
G01X5847Y1732D01*
G01X5842Y1734D01*
G01X5832Y1740D01*
G01X5828Y1744D01*
G01X5822Y1754D01*
G01X5820Y1759D01*
G01X5819Y1765D01*
G01X5819Y2094D01*
G01X5820Y2100D01*
G01X5822Y2105D01*
G01X5828Y2115D01*
G01X5832Y2119D01*
G01X5842Y2125D01*
G01X5847Y2127D01*
G01X5859Y2129D01*
G01X6015Y2129D01*
G01X6015Y2368D01*
G01X6003Y2363D01*
G01X5992Y2356D01*
G01X5980Y2349D01*
G01X5969Y2342D01*
G01X5959Y2334D01*
G01X5949Y2325D01*
G01X5939Y2315D01*
G01X5923Y2295D01*
G01X5915Y2284D01*
G01X5908Y2272D01*
G01X5902Y2261D01*
G01X5897Y2249D01*
G01X5892Y2236D01*
G01X5888Y2223D01*
G01X5886Y2218D01*
G01X5880Y2208D01*
G01X5876Y2204D01*
G01X5871Y2200D01*
G01X5866Y2198D01*
G01X5861Y2195D01*
G01X5855Y2194D01*
G01X5844Y2194D01*
G01X5838Y2195D01*
G01X5833Y2198D01*
G01X5828Y2200D01*
G01X5823Y2204D01*
G01X5819Y2208D01*
G01X5813Y2218D01*
G01X5811Y2223D01*
G01X5807Y2236D01*
G01X5802Y2249D01*
G01X5797Y2261D01*
G01X5790Y2274D01*
G01X5783Y2285D01*
G01X5767Y2307D01*
G01X5758Y2317D01*
G01X5748Y2327D01*
G01X5738Y2336D01*
G01X5727Y2344D01*
G01X5716Y2351D01*
G01X5704Y2358D01*
G01X5692Y2364D01*
G01X5679Y2370D01*
G01X5653Y2378D01*
G01X5640Y2381D01*
G01X5627Y2383D01*
G01X5613Y2384D01*
G01X5600Y2385D01*
G01X5572Y2383D01*
G01X5559Y2381D01*
G01X5546Y2378D01*
G01X5520Y2370D01*
G01X5507Y2364D01*
G01X5495Y2358D01*
G01X5483Y2351D01*
G01X5472Y2344D01*
G01X5461Y2336D01*
G01X5451Y2327D01*
G01X5441Y2317D01*
G01X5432Y2307D01*
G01X5416Y2285D01*
G01X5409Y2274D01*
G01X5402Y2261D01*
G01X5397Y2249D01*
G01X5392Y2236D01*
G01X5388Y2223D01*
G01X5386Y2218D01*
G01X5380Y2208D01*
G01X5376Y2204D01*
G01X5371Y2200D01*
G01X5366Y2198D01*
G01X5361Y2195D01*
G01X5355Y2194D01*
G01X5344Y2194D01*
G01X5338Y2195D01*
G01X5333Y2198D01*
G01X5328Y2200D01*
G01X5323Y2204D01*
G01X5319Y2208D01*
G01X5313Y2218D01*
G01X5311Y2223D01*
G01X5307Y2236D01*
G01X5302Y2249D01*
G01X5297Y2261D01*
G01X5290Y2274D01*
G01X5283Y2285D01*
G01X5267Y2307D01*
G01X5258Y2317D01*
G01X5248Y2327D01*
G01X5238Y2336D01*
G01X5227Y2344D01*
G01X5216Y2351D01*
G01X5204Y2358D01*
G01X5192Y2364D01*
G01X5179Y2370D01*
G01X5153Y2378D01*
G01X5140Y2381D01*
G01X5127Y2383D01*
G01X5113Y2384D01*
G01X5100Y2385D01*
G01X5072Y2383D01*
G01X5059Y2381D01*
G01X5046Y2378D01*
G01X5020Y2370D01*
G01X5007Y2364D01*
G01X4995Y2358D01*
G01X4983Y2351D01*
G01X4972Y2344D01*
G01X4961Y2336D01*
G01X4951Y2327D01*
G01X4941Y2317D01*
G01X4932Y2307D01*
G01X4916Y2285D01*
G01X4909Y2274D01*
G01X4902Y2261D01*
G01X4897Y2249D01*
G01X4892Y2236D01*
G01X4888Y2223D01*
G01X4886Y2218D01*
G01X4880Y2208D01*
G01X4876Y2204D01*
G01X4871Y2200D01*
G01X4866Y2198D01*
G01X4861Y2195D01*
G01X4855Y2194D01*
G01X4844Y2194D01*
G01X4838Y2195D01*
G01X4833Y2198D01*
G01X4828Y2200D01*
G01X4823Y2204D01*
G01X4819Y2208D01*
G01X4813Y2218D01*
G01X4811Y2223D01*
G01X4807Y2236D01*
G01X4802Y2249D01*
G01X4797Y2261D01*
G01X4790Y2274D01*
G01X4783Y2285D01*
G01X4767Y2307D01*
G01X4758Y2317D01*
G01X4748Y2327D01*
G01X4738Y2336D01*
G01X4727Y2344D01*
G01X4716Y2351D01*
G01X4704Y2358D01*
G01X4692Y2364D01*
G01X4679Y2370D01*
G01X4653Y2378D01*
G01X4640Y2381D01*
G01X4627Y2383D01*
G01X4613Y2384D01*
G01X4600Y2385D01*
G01X4572Y2383D01*
G01X4559Y2381D01*
G01X4546Y2378D01*
G01X4520Y2370D01*
G01X4507Y2364D01*
G01X4495Y2358D01*
G01X4483Y2351D01*
G01X4472Y2344D01*
G01X4461Y2336D01*
G01X4451Y2327D01*
G01X4441Y2317D01*
G01X4432Y2307D01*
G01X4416Y2285D01*
G01X4409Y2274D01*
G01X4402Y2261D01*
G01X4397Y2249D01*
G01X4392Y2236D01*
G01X4388Y2223D01*
G01X4386Y2218D01*
G01X4380Y2208D01*
G01X4376Y2204D01*
G01X4371Y2200D01*
G01X4366Y2198D01*
G01X4361Y2195D01*
G01X4355Y2194D01*
G01X4344Y2194D01*
G01X4338Y2195D01*
G01X4333Y2198D01*
G01X4328Y2200D01*
G01X4323Y2204D01*
G01X4319Y2208D01*
G01X4313Y2218D01*
G01X4311Y2223D01*
G01X4307Y2236D01*
G01X4302Y2249D01*
G01X4297Y2261D01*
G01X4290Y2274D01*
G01X4283Y2285D01*
G01X4267Y2307D01*
G01X4258Y2317D01*
G01X4248Y2327D01*
G01X4238Y2336D01*
G01X4227Y2344D01*
G01X4216Y2351D01*
G01X4204Y2358D01*
G01X4192Y2364D01*
G01X4179Y2370D01*
G01X4153Y2378D01*
G01X4140Y2381D01*
G01X4127Y2383D01*
G01X4113Y2384D01*
G01X4100Y2385D01*
G01X4072Y2383D01*
G01X4059Y2381D01*
G01X4046Y2378D01*
G01X4020Y2370D01*
G01X4007Y2364D01*
G01X3995Y2358D01*
G01X3983Y2351D01*
G01X3972Y2344D01*
G01X3961Y2336D01*
G01X3951Y2327D01*
G01X3941Y2317D01*
G01X3932Y2307D01*
G01X3916Y2285D01*
G01X3909Y2274D01*
G01X3902Y2261D01*
G01X3897Y2249D01*
G01X3892Y2236D01*
G01X3888Y2223D01*
G01X3886Y2218D01*
G01X3880Y2208D01*
G01X3876Y2204D01*
G01X3871Y2200D01*
G01X3866Y2198D01*
G01X3861Y2195D01*
G01X3855Y2194D01*
G01X3844Y2194D01*
G01X3838Y2195D01*
G01X3833Y2198D01*
G01X3828Y2200D01*
G01X3823Y2204D01*
G01X3819Y2208D01*
G01X3813Y2218D01*
G01X3811Y2223D01*
G01X3807Y2236D01*
G01X3802Y2249D01*
G01X3797Y2261D01*
G01X3790Y2274D01*
G01X3783Y2285D01*
G01X3767Y2307D01*
G01X3758Y2317D01*
G01X3748Y2327D01*
G01X3738Y2336D01*
G01X3727Y2344D01*
G01X3716Y2351D01*
G01X3704Y2358D01*
G01X3692Y2364D01*
G01X3679Y2370D01*
G01X3653Y2378D01*
G01X3640Y2381D01*
G01X3627Y2383D01*
G01X3613Y2384D01*
G01X3600Y2385D01*
G01X3572Y2383D01*
G01X3559Y2381D01*
G01X3546Y2378D01*
G01X3520Y2370D01*
G01X3507Y2364D01*
G01X3495Y2358D01*
G01X3483Y2351D01*
G01X3472Y2344D01*
G01X3461Y2336D01*
G01X3451Y2327D01*
G01X3441Y2317D01*
G01X3432Y2307D01*
G01X3416Y2285D01*
G01X3409Y2274D01*
G01X3402Y2261D01*
G01X3397Y2249D01*
G01X3392Y2236D01*
G01X3388Y2223D01*
G01X3386Y2218D01*
G01X3380Y2208D01*
G01X3376Y2204D01*
G01X3371Y2200D01*
G01X3366Y2198D01*
G01X3361Y2195D01*
G01X3355Y2194D01*
G01X3344Y2194D01*
G01X3338Y2195D01*
G01X3333Y2198D01*
G01X3328Y2200D01*
G01X3323Y2204D01*
G01X3319Y2208D01*
G01X3313Y2218D01*
G01X3311Y2223D01*
G01X3307Y2236D01*
G01X3302Y2249D01*
G01X3297Y2261D01*
G01X3290Y2274D01*
G01X3283Y2285D01*
G01X3267Y2307D01*
G01X3258Y2317D01*
G01X3248Y2327D01*
G01X3238Y2336D01*
G01X3227Y2344D01*
G01X3216Y2351D01*
G01X3204Y2358D01*
G01X3192Y2364D01*
G01X3179Y2370D01*
G01X3153Y2378D01*
G01X3140Y2381D01*
G01X3127Y2383D01*
G01X3113Y2384D01*
G01X3100Y2385D01*
G01X3086Y2384D01*
G01X3073Y2383D01*
G01X3060Y2381D01*
G01X3034Y2375D01*
G01X3022Y2371D01*
G01X3010Y2366D01*
G01X2998Y2360D01*
G01X2986Y2353D01*
G01X2975Y2346D01*
G01X2964Y2338D01*
G01X2954Y2330D01*
G01X2935Y2311D01*
G01X2927Y2301D01*
G01X2919Y2290D01*
G01X2905Y2268D01*
G01X2900Y2256D01*
G01X2895Y2243D01*
G01X2890Y2231D01*
G01X2884Y2205D01*
G01X2882Y2192D01*
G01X2880Y2166D01*
G01X2880Y1693D01*
G01X2882Y1665D01*
G01X2888Y1637D01*
G01X2892Y1623D01*
G01X2897Y1610D01*
G01X2903Y1597D01*
G01X2909Y1585D01*
G01X2925Y1561D01*
G01X2934Y1550D01*
G01X2940Y1540D01*
G01X2942Y1535D01*
G01X2943Y1529D01*
G01X2944Y1524D01*
G01X2943Y1517D01*
G01X2942Y1511D01*
G01X2939Y1506D01*
G01X2936Y1500D01*
G01X2932Y1495D01*
G01X2649Y1212D01*
G01X2644Y1208D01*
G01X2639Y1205D01*
G01X2633Y1202D01*
G01X2627Y1201D01*
G01X2322Y1201D01*
G01X2316Y1202D01*
G01X2310Y1205D01*
G01X2305Y1208D01*
G01X2300Y1212D01*
G01X2062Y1450D01*
G01X2058Y1455D01*
G01X2055Y1460D01*
G01X2052Y1466D01*
G01X2051Y1472D01*
G01X2051Y8927D01*
G01X2052Y8933D01*
G01X2055Y8939D01*
G01X2058Y8944D01*
G01X2062Y8949D01*
G01X2300Y9187D01*
G01X2305Y9191D01*
G01X2310Y9194D01*
G01X2316Y9197D01*
G01X2322Y9198D01*
G01X2677Y9198D01*
G01X2683Y9197D01*
G01X2689Y9194D01*
G01X2694Y9191D01*
G01X2699Y9187D01*
G01X2937Y8949D01*
G01X2941Y8944D01*
G01X2944Y8939D01*
G01X2947Y8933D01*
G01X2948Y8927D01*
G01X2948Y8875D01*
G01X2947Y8869D01*
G01X2945Y8864D01*
G01X2942Y8858D01*
G01X2938Y8854D01*
G01X2929Y8844D01*
G01X2921Y8833D01*
G01X2913Y8821D01*
G01X2907Y8810D01*
G01X2901Y8798D01*
G01X2895Y8785D01*
G01X2887Y8759D01*
G01X2884Y8746D01*
G01X2882Y8733D01*
G01X2881Y8719D01*
G01X2880Y8706D01*
G01X2880Y8233D01*
G01X2882Y8207D01*
G01X2884Y8194D01*
G01X2890Y8168D01*
G01X2895Y8156D01*
G01X2900Y8143D01*
G01X2905Y8131D01*
G01X2919Y8109D01*
G01X2927Y8098D01*
G01X2935Y8088D01*
G01X2954Y8069D01*
G01X2964Y8061D01*
G01X2975Y8053D01*
G01X2986Y8046D01*
G01X2998Y8039D01*
G01X3010Y8033D01*
G01X3022Y8028D01*
G01X3034Y8024D01*
G01X3060Y8018D01*
G01X3073Y8016D01*
G01X3086Y8015D01*
G01X3100Y8014D01*
G01X3113Y8015D01*
G01X3127Y8016D01*
G01X3140Y8018D01*
G01X3153Y8021D01*
G01X3179Y8029D01*
G01X3192Y8035D01*
G01X3204Y8041D01*
G01X3216Y8048D01*
G01X3227Y8055D01*
G01X3238Y8063D01*
G01X3248Y8072D01*
G01X3258Y8082D01*
G01X3267Y8092D01*
G01X3283Y8114D01*
G01X3290Y8125D01*
G01X3297Y8138D01*
G01X3302Y8150D01*
G01X3307Y8163D01*
G01X3311Y8176D01*
G01X3313Y8181D01*
G01X3319Y8191D01*
G01X3323Y8195D01*
G01X3328Y8199D01*
G01X3333Y8201D01*
G01X3338Y8204D01*
G01X3344Y8205D01*
G01X3355Y8205D01*
G01X3361Y8204D01*
G01X3366Y8201D01*
G01X3371Y8199D01*
G01X3376Y8195D01*
G01X3380Y8191D01*
G01X3386Y8181D01*
G01X3388Y8176D01*
G01X3392Y8163D01*
G01X3397Y8150D01*
G01X3402Y8138D01*
G01X3409Y8125D01*
G01X3416Y8114D01*
G01X3432Y8092D01*
G01X3441Y8082D01*
G01X3451Y8072D01*
G01X3461Y8063D01*
G01X3472Y8055D01*
G01X3483Y8048D01*
G01X3495Y8041D01*
G01X3507Y8035D01*
G01X3520Y8029D01*
G01X3546Y8021D01*
G01X3559Y8018D01*
G01X3572Y8016D01*
G01X3600Y8014D01*
G01X3613Y8015D01*
G01X3627Y8016D01*
G01X3640Y8018D01*
G01X3653Y8021D01*
G01X3679Y8029D01*
G01X3692Y8035D01*
G01X3704Y8041D01*
G01X3716Y8048D01*
G01X3727Y8055D01*
G01X3738Y8063D01*
G01X3748Y8072D01*
G01X3758Y8082D01*
G01X3767Y8092D01*
G01X3783Y8114D01*
G01X3790Y8125D01*
G01X3797Y8138D01*
G01X3802Y8150D01*
G01X3807Y8163D01*
G01X3811Y8176D01*
G01X3813Y8181D01*
G01X3819Y8191D01*
G01X3823Y8195D01*
G01X3828Y8199D01*
G01X3833Y8201D01*
G01X3838Y8204D01*
G01X3844Y8205D01*
G01X3855Y8205D01*
G01X3861Y8204D01*
G01X3866Y8201D01*
G01X3871Y8199D01*
G01X3876Y8195D01*
G01X3880Y8191D01*
G01X3886Y8181D01*
G01X3888Y8176D01*
G01X3892Y8163D01*
G01X3897Y8150D01*
G01X3902Y8138D01*
G01X3909Y8125D01*
G01X3916Y8114D01*
G01X3932Y8092D01*
G01X3941Y8082D01*
G01X3951Y8072D01*
G01X3961Y8063D01*
G01X3972Y8055D01*
G01X3983Y8048D01*
G01X3995Y8041D01*
G01X4007Y8035D01*
G01X4020Y8029D01*
G01X4046Y8021D01*
G01X4059Y8018D01*
G01X4072Y8016D01*
G01X4100Y8014D01*
G01X4113Y8015D01*
G01X4127Y8016D01*
G01X4140Y8018D01*
G01X4153Y8021D01*
G01X4179Y8029D01*
G01X4192Y8035D01*
G01X4204Y8041D01*
G01X4216Y8048D01*
G01X4227Y8055D01*
G01X4238Y8063D01*
G01X4248Y8072D01*
G01X4258Y8082D01*
G01X4267Y8092D01*
G01X4283Y8114D01*
G01X4290Y8125D01*
G01X4297Y8138D01*
G01X4302Y8150D01*
G01X4307Y8163D01*
G01X4311Y8176D01*
G01X4313Y8181D01*
G01X4319Y8191D01*
G01X4323Y8195D01*
G01X4328Y8199D01*
G01X4333Y8201D01*
G01X4338Y8204D01*
G01X4344Y8205D01*
G01X4355Y8205D01*
G01X4361Y8204D01*
G01X4366Y8201D01*
G01X4371Y8199D01*
G01X4376Y8195D01*
G01X4380Y8191D01*
G01X4386Y8181D01*
G01X4388Y8176D01*
G01X4392Y8163D01*
G01X4397Y8150D01*
G01X4402Y8138D01*
G01X4409Y8125D01*
G01X4416Y8114D01*
G01X4432Y8092D01*
G01X4441Y8082D01*
G01X4451Y8072D01*
G01X4461Y8063D01*
G01X4472Y8055D01*
G01X4483Y8048D01*
G01X4495Y8041D01*
G01X4507Y8035D01*
G01X4520Y8029D01*
G01X4546Y8021D01*
G01X4559Y8018D01*
G01X4572Y8016D01*
G01X4600Y8014D01*
G01X4613Y8015D01*
G01X4627Y8016D01*
G01X4640Y8018D01*
G01X4653Y8021D01*
G01X4679Y8029D01*
G01X4692Y8035D01*
G01X4704Y8041D01*
G01X4716Y8048D01*
G01X4727Y8055D01*
G01X4738Y8063D01*
G01X4748Y8072D01*
G01X4758Y8082D01*
G01X4767Y8092D01*
G01X4783Y8114D01*
G01X4790Y8125D01*
G01X4797Y8138D01*
G01X4802Y8150D01*
G01X4807Y8163D01*
G01X4811Y8176D01*
G01X4813Y8181D01*
G01X4819Y8191D01*
G01X4823Y8195D01*
G01X4828Y8199D01*
G01X4833Y8201D01*
G01X4838Y8204D01*
G01X4844Y8205D01*
G01X4855Y8205D01*
G01X4861Y8204D01*
G01X4866Y8201D01*
G01X4871Y8199D01*
G01X4876Y8195D01*
G01X4880Y8191D01*
G01X4886Y8181D01*
G01X4888Y8176D01*
G01X4892Y8163D01*
G01X4897Y8150D01*
G01X4902Y8138D01*
G01X4909Y8125D01*
G01X4916Y8114D01*
G01X4932Y8092D01*
G01X4941Y8082D01*
G01X4951Y8072D01*
G01X4961Y8063D01*
G01X4972Y8055D01*
G01X4983Y8048D01*
G01X4995Y8041D01*
G01X5007Y8035D01*
G01X5020Y8029D01*
G01X5046Y8021D01*
G01X5059Y8018D01*
G01X5072Y8016D01*
G01X5100Y8014D01*
G01X5113Y8015D01*
G01X5127Y8016D01*
G01X5140Y8018D01*
G01X5153Y8021D01*
G01X5179Y8029D01*
G01X5192Y8035D01*
G01X5204Y8041D01*
G01X5216Y8048D01*
G01X5227Y8055D01*
G01X5238Y8063D01*
G01X5248Y8072D01*
G01X5258Y8082D01*
G01X5267Y8092D01*
G01X5283Y8114D01*
G01X5290Y8125D01*
G01X5297Y8138D01*
G01X5302Y8150D01*
G01X5307Y8163D01*
G01X5311Y8176D01*
G01X5313Y8181D01*
G01X5319Y8191D01*
G01X5323Y8195D01*
G01X5328Y8199D01*
G01X5333Y8201D01*
G01X5338Y8204D01*
G01X5344Y8205D01*
G01X5355Y8205D01*
G01X5361Y8204D01*
G01X5366Y8201D01*
G01X5371Y8199D01*
G01X5376Y8195D01*
G01X5380Y8191D01*
G01X5386Y8181D01*
G01X5388Y8176D01*
G01X5392Y8163D01*
G01X5397Y8150D01*
G01X5402Y8138D01*
G01X5409Y8125D01*
G01X5416Y8114D01*
G01X5432Y8092D01*
G01X5441Y8082D01*
G01X5451Y8072D01*
G01X5461Y8063D01*
G01X5472Y8055D01*
G01X5483Y8048D01*
G01X5495Y8041D01*
G01X5507Y8035D01*
G01X5520Y8029D01*
G01X5546Y8021D01*
G01X5559Y8018D01*
G01X5572Y8016D01*
G01X5600Y8014D01*
G01X5613Y8015D01*
G01X5627Y8016D01*
G01X5640Y8018D01*
G01X5653Y8021D01*
G01X5679Y8029D01*
G01X5692Y8035D01*
G01X5704Y8041D01*
G01X5716Y8048D01*
G01X5727Y8055D01*
G01X5738Y8063D01*
G01X5748Y8072D01*
G01X5758Y8082D01*
G01X5767Y8092D01*
G01X5783Y8114D01*
G01X5790Y8125D01*
G01X5797Y8138D01*
G01X5802Y8150D01*
G01X5807Y8163D01*
G01X5811Y8176D01*
G01X5813Y8181D01*
G01X5819Y8191D01*
G01X5823Y8195D01*
G01X5828Y8199D01*
G01X5833Y8201D01*
G01X5838Y8204D01*
G01X5844Y8205D01*
G01X5855Y8205D01*
G01X5861Y8204D01*
G01X5866Y8201D01*
G01X5871Y8199D01*
G01X5876Y8195D01*
G01X5880Y8191D01*
G01X5886Y8181D01*
G01X5888Y8176D01*
G01X5892Y8163D01*
G01X5897Y8150D01*
G01X5902Y8138D01*
G01X5908Y8127D01*
G01X5915Y8115D01*
G01X5923Y8104D01*
G01X5939Y8084D01*
G01X5949Y8074D01*
G01X5959Y8065D01*
G01X5969Y8057D01*
G01X5980Y8050D01*
G01X5992Y8043D01*
G01X6003Y8036D01*
G01X6015Y8031D01*
G01X6015Y8270D01*
G01X5859Y8270D01*
G01X5847Y8272D01*
G01X5842Y8274D01*
G01X5832Y8280D01*
G01X5828Y8284D01*
G01X5822Y8294D01*
G01X5820Y8299D01*
G01X5819Y8305D01*
G01X5819Y8634D01*
G01X5820Y8640D01*
G01X5822Y8645D01*
G01X5828Y8655D01*
G01X5832Y8659D01*
G01X5842Y8665D01*
G01X5847Y8667D01*
G01X5859Y8669D01*
G01X6015Y8669D01*
G01X6015Y8908D01*
G01X6003Y8903D01*
G01X5992Y8896D01*
G01X5980Y8889D01*
G01X5969Y8882D01*
G01X5959Y8874D01*
G01X5949Y8865D01*
G01X5939Y8855D01*
G01X5923Y8835D01*
G01X5915Y8824D01*
G01X5908Y8812D01*
G01X5902Y8801D01*
G01X5897Y8789D01*
G01X5892Y8776D01*
G01X5888Y8763D01*
G01X5886Y8758D01*
G01X5880Y8748D01*
G01X5876Y8744D01*
G01X5871Y8740D01*
G01X5866Y8738D01*
G01X5861Y8735D01*
G01X5855Y8734D01*
G01X5844Y8734D01*
G01X5838Y8735D01*
G01X5833Y8738D01*
G01X5828Y8740D01*
G01X5823Y8744D01*
G01X5819Y8748D01*
G01X5813Y8758D01*
G01X5811Y8763D01*
G01X5807Y8776D01*
G01X5802Y8789D01*
G01X5797Y8801D01*
G01X5790Y8814D01*
G01X5783Y8825D01*
G01X5767Y8847D01*
G01X5758Y8857D01*
G01X5748Y8867D01*
G01X5738Y8876D01*
G01X5727Y8884D01*
G01X5716Y8891D01*
G01X5704Y8898D01*
G01X5692Y8904D01*
G01X5679Y8910D01*
G01X5653Y8918D01*
G01X5640Y8921D01*
G01X5627Y8923D01*
G01X5613Y8924D01*
G01X5600Y8925D01*
G01X5572Y8923D01*
G01X5559Y8921D01*
G01X5546Y8918D01*
G01X5520Y8910D01*
G01X5507Y8904D01*
G01X5495Y8898D01*
G01X5483Y8891D01*
G01X5472Y8884D01*
G01X5461Y8876D01*
G01X5451Y8867D01*
G01X5441Y8857D01*
G01X5432Y8847D01*
G01X5416Y8825D01*
G01X5409Y8814D01*
G01X5402Y8801D01*
G01X5397Y8789D01*
G01X5392Y8776D01*
G01X5388Y8763D01*
G01X5386Y8758D01*
G01X5380Y8748D01*
G01X5376Y8744D01*
G01X5371Y8740D01*
G01X5366Y8738D01*
G01X5361Y8735D01*
G01X5355Y8734D01*
G01X5344Y8734D01*
G01X5338Y8735D01*
G01X5333Y8738D01*
G01X5328Y8740D01*
G01X5323Y8744D01*
G01X5319Y8748D01*
G01X5313Y8758D01*
G01X5311Y8763D01*
G01X5307Y8776D01*
G01X5302Y8789D01*
G01X5297Y8801D01*
G01X5290Y8814D01*
G01X5283Y8825D01*
G01X5267Y8847D01*
G01X5258Y8857D01*
G01X5248Y8867D01*
G01X5238Y8876D01*
G01X5227Y8884D01*
G01X5216Y8891D01*
G01X5204Y8898D01*
G01X5192Y8904D01*
G01X5179Y8910D01*
G01X5153Y8918D01*
G01X5140Y8921D01*
G01X5127Y8923D01*
G01X5113Y8924D01*
G01X5100Y8925D01*
G01X5072Y8923D01*
G01X5059Y8921D01*
G01X5046Y8918D01*
G01X5020Y8910D01*
G01X5007Y8904D01*
G01X4995Y8898D01*
G01X4983Y8891D01*
G01X4972Y8884D01*
G01X4961Y8876D01*
G01X4951Y8867D01*
G01X4941Y8857D01*
G01X4932Y8847D01*
G01X4916Y8825D01*
G01X4909Y8814D01*
G01X4902Y8801D01*
G01X4897Y8789D01*
G01X4892Y8776D01*
G01X4888Y8763D01*
G01X4886Y8758D01*
G01X4880Y8748D01*
G01X4876Y8744D01*
G01X4871Y8740D01*
G01X4866Y8738D01*
G01X4861Y8735D01*
G01X4855Y8734D01*
G01X4844Y8734D01*
G01X4838Y8735D01*
G01X4833Y8738D01*
G01X4828Y8740D01*
G01X4823Y8744D01*
G01X4819Y8748D01*
G01X4813Y8758D01*
G01X4811Y8763D01*
G01X4807Y8776D01*
G01X4802Y8789D01*
G01X4797Y8801D01*
G01X4790Y8814D01*
G01X4783Y8825D01*
G01X4767Y8847D01*
G01X4758Y8857D01*
G01X4748Y8867D01*
G01X4738Y8876D01*
G01X4727Y8884D01*
G01X4716Y8891D01*
G01X4704Y8898D01*
G01X4692Y8904D01*
G01X4679Y8910D01*
G01X4653Y8918D01*
G01X4640Y8921D01*
G01X4627Y8923D01*
G01X4613Y8924D01*
G01X4600Y8925D01*
G01X4572Y8923D01*
G01X4559Y8921D01*
G01X4546Y8918D01*
G01X4520Y8910D01*
G01X4507Y8904D01*
G01X4495Y8898D01*
G01X4483Y8891D01*
G01X4472Y8884D01*
G01X4461Y8876D01*
G01X4451Y8867D01*
G01X4441Y8857D01*
G01X4432Y8847D01*
G01X4416Y8825D01*
G01X4409Y8814D01*
G01X4402Y8801D01*
G01X4397Y8789D01*
G01X4392Y8776D01*
G01X4388Y8763D01*
G01X4386Y8758D01*
G01X4380Y8748D01*
G01X4376Y8744D01*
G01X4371Y8740D01*
G01X4366Y8738D01*
G01X4361Y8735D01*
G01X4355Y8734D01*
G01X4344Y8734D01*
G01X4338Y8735D01*
G01X4333Y8738D01*
G01X4328Y8740D01*
G01X4323Y8744D01*
G01X4319Y8748D01*
G01X4313Y8758D01*
G01X4311Y8763D01*
G01X4307Y8776D01*
G01X4302Y8789D01*
G01X4297Y8801D01*
G01X4290Y8814D01*
G01X4283Y8825D01*
G01X4267Y8847D01*
G01X4258Y8857D01*
G01X4248Y8867D01*
G01X4238Y8876D01*
G01X4227Y8884D01*
G01X4216Y8891D01*
G01X4204Y8898D01*
G01X4192Y8904D01*
G01X4179Y8910D01*
G01X4153Y8918D01*
G01X4140Y8921D01*
G01X4127Y8923D01*
G01X4113Y8924D01*
G01X4100Y8925D01*
G01X4072Y8923D01*
G01X4059Y8921D01*
G01X4046Y8918D01*
G01X4020Y8910D01*
G01X4007Y8904D01*
G01X3995Y8898D01*
G01X3983Y8891D01*
G01X3972Y8884D01*
G01X3961Y8876D01*
G01X3951Y8867D01*
G01X3941Y8857D01*
G01X3932Y8847D01*
G01X3916Y8825D01*
G01X3909Y8814D01*
G01X3902Y8801D01*
G01X3897Y8789D01*
G01X3892Y8776D01*
G01X3888Y8763D01*
G01X3886Y8758D01*
G01X3880Y8748D01*
G01X3876Y8744D01*
G01X3871Y8740D01*
G01X3866Y8738D01*
G01X3861Y8735D01*
G01X3855Y8734D01*
G01X3844Y8734D01*
G01X3838Y8735D01*
G01X3833Y8738D01*
G01X3828Y8740D01*
G01X3823Y8744D01*
G01X3819Y8748D01*
G01X3813Y8758D01*
G01X3811Y8763D01*
G01X3807Y8776D01*
G01X3802Y8789D01*
G01X3797Y8801D01*
G01X3790Y8814D01*
G01X3783Y8825D01*
G01X3767Y8847D01*
G01X3758Y8857D01*
G01X3748Y8867D01*
G01X3738Y8876D01*
G01X3727Y8884D01*
G01X3716Y8891D01*
G01X3704Y8898D01*
G01X3692Y8904D01*
G01X3679Y8910D01*
G01X3653Y8918D01*
G01X3640Y8921D01*
G01X3627Y8923D01*
G01X3613Y8924D01*
G01X3600Y8925D01*
G01X3572Y8923D01*
G01X3559Y8921D01*
G01X3546Y8918D01*
G01X3520Y8910D01*
G01X3507Y8904D01*
G01X3495Y8898D01*
G01X3483Y8891D01*
G01X3472Y8884D01*
G01X3461Y8876D01*
G01X3451Y8867D01*
G01X3441Y8857D01*
G01X3432Y8847D01*
G01X3416Y8825D01*
G01X3409Y8814D01*
G01X3402Y8801D01*
G01X3397Y8789D01*
G01X3392Y8776D01*
G01X3388Y8763D01*
G01X3386Y8758D01*
G01X3380Y8748D01*
G01X3376Y8744D01*
G01X3371Y8740D01*
G01X3366Y8738D01*
G01X3361Y8735D01*
G01X3355Y8734D01*
G01X3344Y8734D01*
G01X3338Y8735D01*
G01X3333Y8738D01*
G01X3328Y8740D01*
G01X3323Y8744D01*
G01X3319Y8748D01*
G01X3313Y8758D01*
G01X3311Y8763D01*
G01X3307Y8778D01*
G01X3301Y8791D01*
G01X3295Y8805D01*
G01X3288Y8818D01*
G01X3280Y8831D01*
G01X3271Y8842D01*
G01X3261Y8854D01*
G01X3257Y8858D01*
G01X3254Y8864D01*
G01X3252Y8869D01*
G01X3251Y8875D01*
G01X3251Y8999D01*
G01X3249Y9023D01*
G01X3246Y9035D01*
G01X3243Y9046D01*
G01X3239Y9057D01*
G01X3234Y9068D01*
G01X3222Y9088D01*
G01X3214Y9098D01*
G01X2848Y9464D01*
G01X2838Y9472D01*
G01X2818Y9484D01*
G01X2807Y9489D01*
G01X2796Y9493D01*
G01X2785Y9496D01*
G01X2773Y9499D01*
G01X2761Y9500D01*
G01X2750Y9501D01*
G37*
G36*
G01X7550Y9501D02*
G01X7249Y9501D01*
G01X7238Y9500D01*
G01X7226Y9499D01*
G01X7214Y9496D01*
G01X7203Y9493D01*
G01X7192Y9489D01*
G01X7181Y9484D01*
G01X7161Y9472D01*
G01X7151Y9464D01*
G01X7143Y9456D01*
G01X6623Y8937D01*
G01X6613Y8929D01*
G01X6607Y8927D01*
G01X6602Y8925D01*
G01X6595Y8925D01*
G01X6569Y8923D01*
G01X6555Y8920D01*
G01X6542Y8917D01*
G01X6530Y8913D01*
G01X6517Y8909D01*
G01X6493Y8897D01*
G01X6481Y8890D01*
G01X6470Y8883D01*
G01X6440Y8856D01*
G01X6431Y8846D01*
G01X6415Y8824D01*
G01X6408Y8813D01*
G01X6402Y8801D01*
G01X6397Y8789D01*
G01X6392Y8776D01*
G01X6388Y8763D01*
G01X6386Y8758D01*
G01X6380Y8748D01*
G01X6376Y8744D01*
G01X6371Y8740D01*
G01X6366Y8738D01*
G01X6361Y8735D01*
G01X6355Y8734D01*
G01X6344Y8734D01*
G01X6338Y8735D01*
G01X6333Y8738D01*
G01X6328Y8740D01*
G01X6323Y8744D01*
G01X6319Y8748D01*
G01X6313Y8758D01*
G01X6311Y8763D01*
G01X6307Y8776D01*
G01X6302Y8789D01*
G01X6297Y8801D01*
G01X6291Y8812D01*
G01X6284Y8824D01*
G01X6276Y8835D01*
G01X6260Y8855D01*
G01X6250Y8865D01*
G01X6240Y8874D01*
G01X6230Y8882D01*
G01X6219Y8889D01*
G01X6207Y8896D01*
G01X6196Y8903D01*
G01X6184Y8908D01*
G01X6184Y8669D01*
G01X6340Y8669D01*
G01X6352Y8667D01*
G01X6357Y8665D01*
G01X6367Y8659D01*
G01X6371Y8655D01*
G01X6377Y8645D01*
G01X6379Y8640D01*
G01X6380Y8634D01*
G01X6380Y8305D01*
G01X6379Y8299D01*
G01X6377Y8294D01*
G01X6371Y8284D01*
G01X6367Y8280D01*
G01X6357Y8274D01*
G01X6352Y8272D01*
G01X6340Y8270D01*
G01X6184Y8270D01*
G01X6184Y8031D01*
G01X6196Y8036D01*
G01X6207Y8043D01*
G01X6219Y8050D01*
G01X6230Y8057D01*
G01X6240Y8065D01*
G01X6250Y8074D01*
G01X6260Y8084D01*
G01X6276Y8104D01*
G01X6284Y8115D01*
G01X6291Y8127D01*
G01X6297Y8138D01*
G01X6302Y8150D01*
G01X6307Y8163D01*
G01X6311Y8176D01*
G01X6313Y8181D01*
G01X6319Y8191D01*
G01X6323Y8195D01*
G01X6328Y8199D01*
G01X6333Y8201D01*
G01X6338Y8204D01*
G01X6344Y8205D01*
G01X6355Y8205D01*
G01X6361Y8204D01*
G01X6366Y8201D01*
G01X6371Y8199D01*
G01X6376Y8195D01*
G01X6380Y8191D01*
G01X6386Y8181D01*
G01X6388Y8176D01*
G01X6392Y8163D01*
G01X6397Y8150D01*
G01X6402Y8138D01*
G01X6409Y8125D01*
G01X6416Y8114D01*
G01X6432Y8092D01*
G01X6441Y8082D01*
G01X6451Y8072D01*
G01X6461Y8063D01*
G01X6472Y8055D01*
G01X6483Y8048D01*
G01X6495Y8041D01*
G01X6507Y8035D01*
G01X6520Y8029D01*
G01X6546Y8021D01*
G01X6559Y8018D01*
G01X6572Y8016D01*
G01X6600Y8014D01*
G01X6626Y8016D01*
G01X6639Y8018D01*
G01X6665Y8024D01*
G01X6677Y8028D01*
G01X6689Y8033D01*
G01X6701Y8039D01*
G01X6713Y8046D01*
G01X6724Y8053D01*
G01X6735Y8061D01*
G01X6745Y8069D01*
G01X6764Y8088D01*
G01X6772Y8098D01*
G01X6780Y8109D01*
G01X6794Y8131D01*
G01X6799Y8143D01*
G01X6804Y8156D01*
G01X6809Y8168D01*
G01X6815Y8194D01*
G01X6817Y8207D01*
G01X6819Y8233D01*
G01X6819Y8695D01*
G01X6823Y8707D01*
G01X6826Y8712D01*
G01X6830Y8717D01*
G01X7300Y9187D01*
G01X7305Y9191D01*
G01X7310Y9194D01*
G01X7316Y9197D01*
G01X7322Y9198D01*
G01X7477Y9198D01*
G01X7483Y9197D01*
G01X7489Y9194D01*
G01X7494Y9191D01*
G01X7499Y9187D01*
G01X7887Y8799D01*
G01X7891Y8794D01*
G01X7894Y8789D01*
G01X7897Y8783D01*
G01X7898Y8777D01*
G01X7898Y1422D01*
G01X7897Y1416D01*
G01X7894Y1410D01*
G01X7891Y1405D01*
G01X7887Y1400D01*
G01X7649Y1162D01*
G01X7644Y1158D01*
G01X7639Y1155D01*
G01X7633Y1152D01*
G01X7627Y1151D01*
G01X7072Y1151D01*
G01X7066Y1152D01*
G01X7060Y1155D01*
G01X7055Y1158D01*
G01X7050Y1162D01*
G01X6762Y1450D01*
G01X6758Y1455D01*
G01X6755Y1460D01*
G01X6752Y1466D01*
G01X6751Y1472D01*
G01X6751Y1524D01*
G01X6752Y1530D01*
G01X6754Y1535D01*
G01X6757Y1541D01*
G01X6761Y1545D01*
G01X6770Y1555D01*
G01X6778Y1566D01*
G01X6786Y1578D01*
G01X6792Y1589D01*
G01X6798Y1601D01*
G01X6804Y1614D01*
G01X6812Y1640D01*
G01X6815Y1653D01*
G01X6817Y1666D01*
G01X6818Y1680D01*
G01X6819Y1693D01*
G01X6819Y2166D01*
G01X6817Y2192D01*
G01X6815Y2205D01*
G01X6809Y2231D01*
G01X6804Y2243D01*
G01X6799Y2256D01*
G01X6794Y2268D01*
G01X6780Y2290D01*
G01X6772Y2301D01*
G01X6764Y2311D01*
G01X6745Y2330D01*
G01X6735Y2338D01*
G01X6724Y2346D01*
G01X6713Y2353D01*
G01X6701Y2360D01*
G01X6689Y2366D01*
G01X6677Y2371D01*
G01X6665Y2375D01*
G01X6639Y2381D01*
G01X6626Y2383D01*
G01X6600Y2385D01*
G01X6572Y2383D01*
G01X6559Y2381D01*
G01X6546Y2378D01*
G01X6520Y2370D01*
G01X6507Y2364D01*
G01X6495Y2358D01*
G01X6483Y2351D01*
G01X6472Y2344D01*
G01X6461Y2336D01*
G01X6451Y2327D01*
G01X6441Y2317D01*
G01X6432Y2307D01*
G01X6416Y2285D01*
G01X6409Y2274D01*
G01X6402Y2261D01*
G01X6397Y2249D01*
G01X6392Y2236D01*
G01X6388Y2223D01*
G01X6386Y2218D01*
G01X6380Y2208D01*
G01X6376Y2204D01*
G01X6371Y2200D01*
G01X6366Y2198D01*
G01X6361Y2195D01*
G01X6355Y2194D01*
G01X6344Y2194D01*
G01X6338Y2195D01*
G01X6333Y2198D01*
G01X6328Y2200D01*
G01X6323Y2204D01*
G01X6319Y2208D01*
G01X6313Y2218D01*
G01X6311Y2223D01*
G01X6307Y2236D01*
G01X6302Y2249D01*
G01X6297Y2261D01*
G01X6291Y2272D01*
G01X6284Y2284D01*
G01X6276Y2295D01*
G01X6260Y2315D01*
G01X6250Y2325D01*
G01X6240Y2334D01*
G01X6230Y2342D01*
G01X6219Y2349D01*
G01X6207Y2356D01*
G01X6196Y2363D01*
G01X6184Y2368D01*
G01X6184Y2129D01*
G01X6340Y2129D01*
G01X6352Y2127D01*
G01X6357Y2125D01*
G01X6367Y2119D01*
G01X6371Y2115D01*
G01X6377Y2105D01*
G01X6379Y2100D01*
G01X6380Y2094D01*
G01X6380Y1765D01*
G01X6379Y1759D01*
G01X6377Y1754D01*
G01X6371Y1744D01*
G01X6367Y1740D01*
G01X6357Y1734D01*
G01X6352Y1732D01*
G01X6340Y1730D01*
G01X6184Y1730D01*
G01X6184Y1491D01*
G01X6196Y1496D01*
G01X6207Y1503D01*
G01X6219Y1510D01*
G01X6230Y1517D01*
G01X6240Y1525D01*
G01X6250Y1534D01*
G01X6260Y1544D01*
G01X6276Y1564D01*
G01X6284Y1575D01*
G01X6291Y1587D01*
G01X6297Y1598D01*
G01X6302Y1610D01*
G01X6307Y1623D01*
G01X6311Y1636D01*
G01X6313Y1641D01*
G01X6319Y1651D01*
G01X6323Y1655D01*
G01X6328Y1659D01*
G01X6333Y1661D01*
G01X6338Y1664D01*
G01X6344Y1665D01*
G01X6355Y1665D01*
G01X6361Y1664D01*
G01X6366Y1661D01*
G01X6371Y1659D01*
G01X6376Y1655D01*
G01X6380Y1651D01*
G01X6386Y1641D01*
G01X6388Y1636D01*
G01X6392Y1621D01*
G01X6398Y1608D01*
G01X6404Y1594D01*
G01X6411Y1581D01*
G01X6419Y1568D01*
G01X6428Y1557D01*
G01X6438Y1545D01*
G01X6442Y1541D01*
G01X6445Y1535D01*
G01X6447Y1530D01*
G01X6448Y1524D01*
G01X6448Y1400D01*
G01X6450Y1376D01*
G01X6453Y1364D01*
G01X6456Y1353D01*
G01X6460Y1342D01*
G01X6465Y1331D01*
G01X6477Y1311D01*
G01X6485Y1301D01*
G01X6901Y885D01*
G01X6911Y877D01*
G01X6931Y865D01*
G01X6942Y860D01*
G01X6953Y856D01*
G01X6964Y853D01*
G01X6976Y850D01*
G01X6988Y849D01*
G01X6999Y848D01*
G01X7700Y848D01*
G01X7711Y849D01*
G01X7723Y850D01*
G01X7735Y853D01*
G01X7746Y856D01*
G01X7757Y860D01*
G01X7768Y865D01*
G01X7788Y877D01*
G01X7798Y885D01*
G01X8164Y1251D01*
G01X8172Y1261D01*
G01X8184Y1281D01*
G01X8189Y1292D01*
G01X8193Y1303D01*
G01X8196Y1314D01*
G01X8199Y1326D01*
G01X8200Y1338D01*
G01X8201Y1349D01*
G01X8201Y8849D01*
G01X8199Y8873D01*
G01X8196Y8885D01*
G01X8193Y8896D01*
G01X8189Y8907D01*
G01X8184Y8918D01*
G01X8172Y8938D01*
G01X8164Y8948D01*
G01X7648Y9464D01*
G01X7638Y9472D01*
G01X7618Y9484D01*
G01X7607Y9489D01*
G01X7596Y9493D01*
G01X7585Y9496D01*
G01X7573Y9499D01*
G01X7561Y9500D01*
G01X7550Y9501D01*
G37*
G36*
G01X3613Y6584D02*
G01X3600Y6585D01*
G01X3572Y6583D01*
G01X3559Y6581D01*
G01X3546Y6578D01*
G01X3520Y6570D01*
G01X3507Y6564D01*
G01X3495Y6558D01*
G01X3483Y6551D01*
G01X3472Y6544D01*
G01X3461Y6536D01*
G01X3451Y6527D01*
G01X3441Y6517D01*
G01X3432Y6507D01*
G01X3416Y6485D01*
G01X3409Y6474D01*
G01X3402Y6461D01*
G01X3397Y6449D01*
G01X3392Y6436D01*
G01X3388Y6423D01*
G01X3386Y6418D01*
G01X3380Y6408D01*
G01X3376Y6404D01*
G01X3371Y6400D01*
G01X3366Y6398D01*
G01X3361Y6395D01*
G01X3355Y6394D01*
G01X3344Y6394D01*
G01X3338Y6395D01*
G01X3333Y6398D01*
G01X3328Y6400D01*
G01X3323Y6404D01*
G01X3319Y6408D01*
G01X3313Y6418D01*
G01X3311Y6423D01*
G01X3307Y6436D01*
G01X3302Y6449D01*
G01X3297Y6461D01*
G01X3291Y6472D01*
G01X3284Y6484D01*
G01X3276Y6495D01*
G01X3260Y6515D01*
G01X3250Y6525D01*
G01X3240Y6534D01*
G01X3230Y6542D01*
G01X3219Y6549D01*
G01X3207Y6556D01*
G01X3196Y6563D01*
G01X3184Y6568D01*
G01X3184Y6323D01*
G01X3190Y6326D01*
G01X3197Y6328D01*
G01X3205Y6329D01*
G01X3340Y6329D01*
G01X3352Y6327D01*
G01X3357Y6325D01*
G01X3367Y6319D01*
G01X3371Y6315D01*
G01X3377Y6305D01*
G01X3379Y6300D01*
G01X3380Y6294D01*
G01X3380Y5965D01*
G01X3379Y5959D01*
G01X3377Y5954D01*
G01X3371Y5944D01*
G01X3367Y5940D01*
G01X3357Y5934D01*
G01X3352Y5932D01*
G01X3340Y5930D01*
G01X3290Y5930D01*
G01X3285Y5931D01*
G01X3279Y5932D01*
G01X3274Y5934D01*
G01X3264Y5940D01*
G01X3260Y5944D01*
G01X3254Y5954D01*
G01X3252Y5959D01*
G01X3251Y5965D01*
G01X3251Y6129D01*
G01X3250Y6141D01*
G01X3249Y6152D01*
G01X3247Y6164D01*
G01X3244Y6175D01*
G01X3240Y6185D01*
G01X3235Y6196D01*
G01X3230Y6206D01*
G01X3224Y6216D01*
G01X3217Y6225D01*
G01X3201Y6241D01*
G01X3192Y6249D01*
G01X3183Y6255D01*
G01X3178Y6259D01*
G01X3173Y6264D01*
G01X3167Y6276D01*
G01X3166Y6282D01*
G01X3160Y6279D01*
G01X3155Y6277D01*
G01X3149Y6276D01*
G01X3144Y6275D01*
G01X3134Y6276D01*
G01X3123Y6279D01*
G01X3111Y6280D01*
G01X3088Y6280D01*
G01X3076Y6279D01*
G01X3065Y6276D01*
G01X3055Y6275D01*
G01X3050Y6276D01*
G01X3044Y6277D01*
G01X3039Y6279D01*
G01X3033Y6282D01*
G01X3032Y6276D01*
G01X3026Y6264D01*
G01X3021Y6259D01*
G01X3016Y6255D01*
G01X3007Y6249D01*
G01X2998Y6241D01*
G01X2982Y6225D01*
G01X2975Y6216D01*
G01X2969Y6206D01*
G01X2964Y6196D01*
G01X2959Y6185D01*
G01X2955Y6175D01*
G01X2952Y6164D01*
G01X2950Y6152D01*
G01X2948Y6130D01*
G01X2948Y5965D01*
G01X2947Y5959D01*
G01X2945Y5954D01*
G01X2939Y5944D01*
G01X2935Y5940D01*
G01X2925Y5934D01*
G01X2920Y5932D01*
G01X2914Y5931D01*
G01X2909Y5930D01*
G01X2880Y5930D01*
G01X2880Y5893D01*
G01X2881Y5880D01*
G01X2882Y5866D01*
G01X2884Y5853D01*
G01X2887Y5840D01*
G01X2895Y5814D01*
G01X2901Y5801D01*
G01X2907Y5789D01*
G01X2913Y5778D01*
G01X2921Y5766D01*
G01X2929Y5755D01*
G01X2938Y5745D01*
G01X2942Y5741D01*
G01X2945Y5735D01*
G01X2947Y5730D01*
G01X2948Y5724D01*
G01X2948Y4675D01*
G01X2947Y4669D01*
G01X2945Y4664D01*
G01X2942Y4658D01*
G01X2938Y4654D01*
G01X2929Y4644D01*
G01X2921Y4633D01*
G01X2913Y4621D01*
G01X2907Y4610D01*
G01X2901Y4598D01*
G01X2895Y4585D01*
G01X2887Y4559D01*
G01X2884Y4546D01*
G01X2882Y4533D01*
G01X2881Y4519D01*
G01X2880Y4506D01*
G01X2880Y4033D01*
G01X2882Y4007D01*
G01X2884Y3994D01*
G01X2890Y3968D01*
G01X2895Y3956D01*
G01X2900Y3943D01*
G01X2905Y3931D01*
G01X2919Y3909D01*
G01X2927Y3898D01*
G01X2935Y3888D01*
G01X2954Y3869D01*
G01X2964Y3861D01*
G01X2975Y3853D01*
G01X2986Y3846D01*
G01X2998Y3839D01*
G01X3010Y3833D01*
G01X3022Y3828D01*
G01X3034Y3824D01*
G01X3060Y3818D01*
G01X3073Y3816D01*
G01X3086Y3815D01*
G01X3100Y3814D01*
G01X3113Y3815D01*
G01X3127Y3816D01*
G01X3140Y3818D01*
G01X3153Y3821D01*
G01X3179Y3829D01*
G01X3192Y3835D01*
G01X3204Y3841D01*
G01X3216Y3848D01*
G01X3227Y3855D01*
G01X3238Y3863D01*
G01X3248Y3872D01*
G01X3258Y3882D01*
G01X3267Y3892D01*
G01X3283Y3914D01*
G01X3290Y3925D01*
G01X3297Y3938D01*
G01X3302Y3950D01*
G01X3307Y3963D01*
G01X3311Y3976D01*
G01X3313Y3981D01*
G01X3319Y3991D01*
G01X3323Y3995D01*
G01X3328Y3999D01*
G01X3333Y4001D01*
G01X3338Y4004D01*
G01X3344Y4005D01*
G01X3355Y4005D01*
G01X3361Y4004D01*
G01X3366Y4001D01*
G01X3371Y3999D01*
G01X3376Y3995D01*
G01X3380Y3991D01*
G01X3386Y3981D01*
G01X3388Y3976D01*
G01X3392Y3963D01*
G01X3397Y3950D01*
G01X3402Y3938D01*
G01X3409Y3925D01*
G01X3416Y3914D01*
G01X3432Y3892D01*
G01X3441Y3882D01*
G01X3451Y3872D01*
G01X3461Y3863D01*
G01X3472Y3855D01*
G01X3483Y3848D01*
G01X3495Y3841D01*
G01X3507Y3835D01*
G01X3520Y3829D01*
G01X3546Y3821D01*
G01X3559Y3818D01*
G01X3572Y3816D01*
G01X3600Y3814D01*
G01X3613Y3815D01*
G01X3627Y3816D01*
G01X3640Y3818D01*
G01X3653Y3821D01*
G01X3679Y3829D01*
G01X3692Y3835D01*
G01X3704Y3841D01*
G01X3716Y3848D01*
G01X3727Y3855D01*
G01X3738Y3863D01*
G01X3748Y3872D01*
G01X3758Y3882D01*
G01X3767Y3892D01*
G01X3783Y3914D01*
G01X3790Y3925D01*
G01X3797Y3938D01*
G01X3802Y3950D01*
G01X3807Y3963D01*
G01X3811Y3976D01*
G01X3813Y3981D01*
G01X3819Y3991D01*
G01X3823Y3995D01*
G01X3828Y3999D01*
G01X3833Y4001D01*
G01X3838Y4004D01*
G01X3844Y4005D01*
G01X3855Y4005D01*
G01X3861Y4004D01*
G01X3866Y4001D01*
G01X3871Y3999D01*
G01X3876Y3995D01*
G01X3880Y3991D01*
G01X3886Y3981D01*
G01X3888Y3976D01*
G01X3892Y3963D01*
G01X3897Y3950D01*
G01X3902Y3938D01*
G01X3909Y3925D01*
G01X3916Y3914D01*
G01X3932Y3892D01*
G01X3941Y3882D01*
G01X3951Y3872D01*
G01X3961Y3863D01*
G01X3972Y3855D01*
G01X3983Y3848D01*
G01X3995Y3841D01*
G01X4007Y3835D01*
G01X4020Y3829D01*
G01X4046Y3821D01*
G01X4059Y3818D01*
G01X4072Y3816D01*
G01X4100Y3814D01*
G01X4113Y3815D01*
G01X4127Y3816D01*
G01X4140Y3818D01*
G01X4153Y3821D01*
G01X4179Y3829D01*
G01X4192Y3835D01*
G01X4204Y3841D01*
G01X4216Y3848D01*
G01X4227Y3855D01*
G01X4238Y3863D01*
G01X4248Y3872D01*
G01X4258Y3882D01*
G01X4267Y3892D01*
G01X4283Y3914D01*
G01X4290Y3925D01*
G01X4297Y3938D01*
G01X4302Y3950D01*
G01X4307Y3963D01*
G01X4311Y3976D01*
G01X4313Y3981D01*
G01X4319Y3991D01*
G01X4323Y3995D01*
G01X4328Y3999D01*
G01X4333Y4001D01*
G01X4338Y4004D01*
G01X4344Y4005D01*
G01X4355Y4005D01*
G01X4361Y4004D01*
G01X4366Y4001D01*
G01X4371Y3999D01*
G01X4376Y3995D01*
G01X4380Y3991D01*
G01X4386Y3981D01*
G01X4388Y3976D01*
G01X4392Y3963D01*
G01X4397Y3950D01*
G01X4402Y3938D01*
G01X4409Y3925D01*
G01X4416Y3914D01*
G01X4432Y3892D01*
G01X4441Y3882D01*
G01X4451Y3872D01*
G01X4461Y3863D01*
G01X4472Y3855D01*
G01X4483Y3848D01*
G01X4495Y3841D01*
G01X4507Y3835D01*
G01X4520Y3829D01*
G01X4546Y3821D01*
G01X4559Y3818D01*
G01X4572Y3816D01*
G01X4600Y3814D01*
G01X4613Y3815D01*
G01X4627Y3816D01*
G01X4640Y3818D01*
G01X4653Y3821D01*
G01X4679Y3829D01*
G01X4692Y3835D01*
G01X4704Y3841D01*
G01X4716Y3848D01*
G01X4727Y3855D01*
G01X4738Y3863D01*
G01X4748Y3872D01*
G01X4758Y3882D01*
G01X4767Y3892D01*
G01X4783Y3914D01*
G01X4790Y3925D01*
G01X4797Y3938D01*
G01X4802Y3950D01*
G01X4807Y3963D01*
G01X4811Y3976D01*
G01X4813Y3981D01*
G01X4819Y3991D01*
G01X4823Y3995D01*
G01X4828Y3999D01*
G01X4833Y4001D01*
G01X4838Y4004D01*
G01X4844Y4005D01*
G01X4855Y4005D01*
G01X4861Y4004D01*
G01X4866Y4001D01*
G01X4871Y3999D01*
G01X4876Y3995D01*
G01X4880Y3991D01*
G01X4886Y3981D01*
G01X4888Y3976D01*
G01X4892Y3963D01*
G01X4897Y3950D01*
G01X4902Y3938D01*
G01X4909Y3925D01*
G01X4916Y3914D01*
G01X4932Y3892D01*
G01X4941Y3882D01*
G01X4951Y3872D01*
G01X4961Y3863D01*
G01X4972Y3855D01*
G01X4983Y3848D01*
G01X4995Y3841D01*
G01X5007Y3835D01*
G01X5020Y3829D01*
G01X5046Y3821D01*
G01X5059Y3818D01*
G01X5072Y3816D01*
G01X5100Y3814D01*
G01X5113Y3815D01*
G01X5127Y3816D01*
G01X5140Y3818D01*
G01X5153Y3821D01*
G01X5179Y3829D01*
G01X5192Y3835D01*
G01X5204Y3841D01*
G01X5216Y3848D01*
G01X5227Y3855D01*
G01X5238Y3863D01*
G01X5248Y3872D01*
G01X5258Y3882D01*
G01X5267Y3892D01*
G01X5283Y3914D01*
G01X5290Y3925D01*
G01X5297Y3938D01*
G01X5302Y3950D01*
G01X5307Y3963D01*
G01X5311Y3976D01*
G01X5313Y3981D01*
G01X5319Y3991D01*
G01X5323Y3995D01*
G01X5328Y3999D01*
G01X5333Y4001D01*
G01X5338Y4004D01*
G01X5344Y4005D01*
G01X5355Y4005D01*
G01X5361Y4004D01*
G01X5366Y4001D01*
G01X5371Y3999D01*
G01X5376Y3995D01*
G01X5380Y3991D01*
G01X5386Y3981D01*
G01X5388Y3976D01*
G01X5392Y3963D01*
G01X5397Y3950D01*
G01X5402Y3938D01*
G01X5409Y3925D01*
G01X5416Y3914D01*
G01X5432Y3892D01*
G01X5441Y3882D01*
G01X5451Y3872D01*
G01X5461Y3863D01*
G01X5472Y3855D01*
G01X5483Y3848D01*
G01X5495Y3841D01*
G01X5507Y3835D01*
G01X5520Y3829D01*
G01X5546Y3821D01*
G01X5559Y3818D01*
G01X5572Y3816D01*
G01X5600Y3814D01*
G01X5613Y3815D01*
G01X5627Y3816D01*
G01X5640Y3818D01*
G01X5653Y3821D01*
G01X5679Y3829D01*
G01X5692Y3835D01*
G01X5704Y3841D01*
G01X5716Y3848D01*
G01X5727Y3855D01*
G01X5738Y3863D01*
G01X5748Y3872D01*
G01X5758Y3882D01*
G01X5767Y3892D01*
G01X5783Y3914D01*
G01X5790Y3925D01*
G01X5797Y3938D01*
G01X5802Y3950D01*
G01X5807Y3963D01*
G01X5811Y3976D01*
G01X5813Y3981D01*
G01X5819Y3991D01*
G01X5823Y3995D01*
G01X5828Y3999D01*
G01X5833Y4001D01*
G01X5838Y4004D01*
G01X5844Y4005D01*
G01X5855Y4005D01*
G01X5861Y4004D01*
G01X5866Y4001D01*
G01X5871Y3999D01*
G01X5876Y3995D01*
G01X5880Y3991D01*
G01X5886Y3981D01*
G01X5888Y3976D01*
G01X5892Y3963D01*
G01X5897Y3950D01*
G01X5902Y3938D01*
G01X5909Y3925D01*
G01X5916Y3914D01*
G01X5932Y3892D01*
G01X5941Y3882D01*
G01X5951Y3872D01*
G01X5961Y3863D01*
G01X5972Y3855D01*
G01X5983Y3848D01*
G01X5995Y3841D01*
G01X6007Y3835D01*
G01X6020Y3829D01*
G01X6046Y3821D01*
G01X6059Y3818D01*
G01X6072Y3816D01*
G01X6100Y3814D01*
G01X6113Y3815D01*
G01X6127Y3816D01*
G01X6140Y3818D01*
G01X6153Y3821D01*
G01X6179Y3829D01*
G01X6192Y3835D01*
G01X6204Y3841D01*
G01X6216Y3848D01*
G01X6227Y3855D01*
G01X6238Y3863D01*
G01X6248Y3872D01*
G01X6258Y3882D01*
G01X6267Y3892D01*
G01X6283Y3914D01*
G01X6290Y3925D01*
G01X6297Y3938D01*
G01X6302Y3950D01*
G01X6307Y3963D01*
G01X6311Y3976D01*
G01X6313Y3981D01*
G01X6319Y3991D01*
G01X6323Y3995D01*
G01X6328Y3999D01*
G01X6333Y4001D01*
G01X6338Y4004D01*
G01X6344Y4005D01*
G01X6355Y4005D01*
G01X6361Y4004D01*
G01X6366Y4001D01*
G01X6371Y3999D01*
G01X6376Y3995D01*
G01X6380Y3991D01*
G01X6386Y3981D01*
G01X6388Y3976D01*
G01X6392Y3963D01*
G01X6397Y3950D01*
G01X6402Y3938D01*
G01X6408Y3927D01*
G01X6415Y3915D01*
G01X6423Y3904D01*
G01X6439Y3884D01*
G01X6449Y3874D01*
G01X6459Y3865D01*
G01X6469Y3857D01*
G01X6480Y3850D01*
G01X6492Y3843D01*
G01X6503Y3836D01*
G01X6515Y3831D01*
G01X6515Y4076D01*
G01X6509Y4073D01*
G01X6502Y4071D01*
G01X6494Y4070D01*
G01X6359Y4070D01*
G01X6347Y4072D01*
G01X6342Y4074D01*
G01X6332Y4080D01*
G01X6328Y4084D01*
G01X6322Y4094D01*
G01X6320Y4099D01*
G01X6319Y4105D01*
G01X6319Y4434D01*
G01X6320Y4440D01*
G01X6322Y4445D01*
G01X6328Y4455D01*
G01X6332Y4459D01*
G01X6342Y4465D01*
G01X6347Y4467D01*
G01X6359Y4469D01*
G01X6409Y4469D01*
G01X6414Y4468D01*
G01X6420Y4467D01*
G01X6425Y4465D01*
G01X6435Y4459D01*
G01X6439Y4455D01*
G01X6445Y4445D01*
G01X6447Y4440D01*
G01X6448Y4434D01*
G01X6448Y4270D01*
G01X6449Y4258D01*
G01X6450Y4247D01*
G01X6452Y4235D01*
G01X6455Y4224D01*
G01X6459Y4214D01*
G01X6464Y4203D01*
G01X6469Y4193D01*
G01X6475Y4183D01*
G01X6482Y4174D01*
G01X6498Y4158D01*
G01X6507Y4150D01*
G01X6516Y4144D01*
G01X6521Y4140D01*
G01X6526Y4135D01*
G01X6532Y4123D01*
G01X6533Y4117D01*
G01X6539Y4120D01*
G01X6544Y4122D01*
G01X6550Y4123D01*
G01X6555Y4124D01*
G01X6565Y4123D01*
G01X6576Y4120D01*
G01X6588Y4119D01*
G01X6611Y4119D01*
G01X6623Y4120D01*
G01X6634Y4123D01*
G01X6644Y4124D01*
G01X6649Y4123D01*
G01X6655Y4122D01*
G01X6660Y4120D01*
G01X6666Y4117D01*
G01X6667Y4123D01*
G01X6673Y4135D01*
G01X6678Y4140D01*
G01X6683Y4144D01*
G01X6692Y4150D01*
G01X6701Y4158D01*
G01X6717Y4174D01*
G01X6724Y4183D01*
G01X6730Y4193D01*
G01X6735Y4203D01*
G01X6740Y4214D01*
G01X6744Y4224D01*
G01X6747Y4235D01*
G01X6749Y4247D01*
G01X6751Y4269D01*
G01X6751Y4434D01*
G01X6752Y4440D01*
G01X6754Y4445D01*
G01X6760Y4455D01*
G01X6764Y4459D01*
G01X6774Y4465D01*
G01X6779Y4467D01*
G01X6785Y4468D01*
G01X6790Y4469D01*
G01X6819Y4469D01*
G01X6819Y4506D01*
G01X6818Y4519D01*
G01X6817Y4533D01*
G01X6815Y4546D01*
G01X6812Y4559D01*
G01X6804Y4585D01*
G01X6798Y4598D01*
G01X6792Y4610D01*
G01X6786Y4621D01*
G01X6778Y4633D01*
G01X6770Y4644D01*
G01X6761Y4654D01*
G01X6757Y4658D01*
G01X6754Y4664D01*
G01X6752Y4669D01*
G01X6751Y4675D01*
G01X6751Y5724D01*
G01X6752Y5730D01*
G01X6754Y5735D01*
G01X6757Y5741D01*
G01X6761Y5745D01*
G01X6770Y5755D01*
G01X6778Y5766D01*
G01X6786Y5778D01*
G01X6792Y5789D01*
G01X6798Y5801D01*
G01X6804Y5814D01*
G01X6812Y5840D01*
G01X6815Y5853D01*
G01X6817Y5866D01*
G01X6818Y5880D01*
G01X6819Y5893D01*
G01X6819Y6366D01*
G01X6817Y6392D01*
G01X6815Y6405D01*
G01X6809Y6431D01*
G01X6804Y6443D01*
G01X6799Y6456D01*
G01X6794Y6468D01*
G01X6780Y6490D01*
G01X6772Y6501D01*
G01X6764Y6511D01*
G01X6745Y6530D01*
G01X6735Y6538D01*
G01X6724Y6546D01*
G01X6713Y6553D01*
G01X6701Y6560D01*
G01X6689Y6566D01*
G01X6677Y6571D01*
G01X6665Y6575D01*
G01X6639Y6581D01*
G01X6626Y6583D01*
G01X6600Y6585D01*
G01X6572Y6583D01*
G01X6559Y6581D01*
G01X6546Y6578D01*
G01X6520Y6570D01*
G01X6507Y6564D01*
G01X6495Y6558D01*
G01X6483Y6551D01*
G01X6472Y6544D01*
G01X6461Y6536D01*
G01X6451Y6527D01*
G01X6441Y6517D01*
G01X6432Y6507D01*
G01X6416Y6485D01*
G01X6409Y6474D01*
G01X6402Y6461D01*
G01X6397Y6449D01*
G01X6392Y6436D01*
G01X6388Y6423D01*
G01X6386Y6418D01*
G01X6380Y6408D01*
G01X6376Y6404D01*
G01X6371Y6400D01*
G01X6366Y6398D01*
G01X6361Y6395D01*
G01X6355Y6394D01*
G01X6344Y6394D01*
G01X6338Y6395D01*
G01X6333Y6398D01*
G01X6328Y6400D01*
G01X6323Y6404D01*
G01X6319Y6408D01*
G01X6313Y6418D01*
G01X6311Y6423D01*
G01X6307Y6436D01*
G01X6302Y6449D01*
G01X6297Y6461D01*
G01X6290Y6474D01*
G01X6283Y6485D01*
G01X6267Y6507D01*
G01X6258Y6517D01*
G01X6248Y6527D01*
G01X6238Y6536D01*
G01X6227Y6544D01*
G01X6216Y6551D01*
G01X6204Y6558D01*
G01X6192Y6564D01*
G01X6179Y6570D01*
G01X6153Y6578D01*
G01X6140Y6581D01*
G01X6127Y6583D01*
G01X6113Y6584D01*
G01X6100Y6585D01*
G01X6072Y6583D01*
G01X6059Y6581D01*
G01X6046Y6578D01*
G01X6020Y6570D01*
G01X6007Y6564D01*
G01X5995Y6558D01*
G01X5983Y6551D01*
G01X5972Y6544D01*
G01X5961Y6536D01*
G01X5951Y6527D01*
G01X5941Y6517D01*
G01X5932Y6507D01*
G01X5916Y6485D01*
G01X5909Y6474D01*
G01X5902Y6461D01*
G01X5897Y6449D01*
G01X5892Y6436D01*
G01X5888Y6423D01*
G01X5886Y6418D01*
G01X5880Y6408D01*
G01X5876Y6404D01*
G01X5871Y6400D01*
G01X5866Y6398D01*
G01X5861Y6395D01*
G01X5855Y6394D01*
G01X5844Y6394D01*
G01X5838Y6395D01*
G01X5833Y6398D01*
G01X5828Y6400D01*
G01X5823Y6404D01*
G01X5819Y6408D01*
G01X5813Y6418D01*
G01X5811Y6423D01*
G01X5807Y6436D01*
G01X5802Y6449D01*
G01X5797Y6461D01*
G01X5790Y6474D01*
G01X5783Y6485D01*
G01X5767Y6507D01*
G01X5758Y6517D01*
G01X5748Y6527D01*
G01X5738Y6536D01*
G01X5727Y6544D01*
G01X5716Y6551D01*
G01X5704Y6558D01*
G01X5692Y6564D01*
G01X5679Y6570D01*
G01X5653Y6578D01*
G01X5640Y6581D01*
G01X5627Y6583D01*
G01X5613Y6584D01*
G01X5600Y6585D01*
G01X5572Y6583D01*
G01X5559Y6581D01*
G01X5546Y6578D01*
G01X5520Y6570D01*
G01X5507Y6564D01*
G01X5495Y6558D01*
G01X5483Y6551D01*
G01X5472Y6544D01*
G01X5461Y6536D01*
G01X5451Y6527D01*
G01X5441Y6517D01*
G01X5432Y6507D01*
G01X5416Y6485D01*
G01X5409Y6474D01*
G01X5402Y6461D01*
G01X5397Y6449D01*
G01X5392Y6436D01*
G01X5388Y6423D01*
G01X5386Y6418D01*
G01X5380Y6408D01*
G01X5376Y6404D01*
G01X5371Y6400D01*
G01X5366Y6398D01*
G01X5361Y6395D01*
G01X5355Y6394D01*
G01X5344Y6394D01*
G01X5338Y6395D01*
G01X5333Y6398D01*
G01X5328Y6400D01*
G01X5323Y6404D01*
G01X5319Y6408D01*
G01X5313Y6418D01*
G01X5311Y6423D01*
G01X5307Y6436D01*
G01X5302Y6449D01*
G01X5297Y6461D01*
G01X5290Y6474D01*
G01X5283Y6485D01*
G01X5267Y6507D01*
G01X5258Y6517D01*
G01X5248Y6527D01*
G01X5238Y6536D01*
G01X5227Y6544D01*
G01X5216Y6551D01*
G01X5204Y6558D01*
G01X5192Y6564D01*
G01X5179Y6570D01*
G01X5153Y6578D01*
G01X5140Y6581D01*
G01X5127Y6583D01*
G01X5113Y6584D01*
G01X5100Y6585D01*
G01X5072Y6583D01*
G01X5059Y6581D01*
G01X5046Y6578D01*
G01X5020Y6570D01*
G01X5007Y6564D01*
G01X4995Y6558D01*
G01X4983Y6551D01*
G01X4972Y6544D01*
G01X4961Y6536D01*
G01X4951Y6527D01*
G01X4941Y6517D01*
G01X4932Y6507D01*
G01X4916Y6485D01*
G01X4909Y6474D01*
G01X4902Y6461D01*
G01X4897Y6449D01*
G01X4892Y6436D01*
G01X4888Y6423D01*
G01X4886Y6418D01*
G01X4880Y6408D01*
G01X4876Y6404D01*
G01X4871Y6400D01*
G01X4866Y6398D01*
G01X4861Y6395D01*
G01X4855Y6394D01*
G01X4844Y6394D01*
G01X4838Y6395D01*
G01X4833Y6398D01*
G01X4828Y6400D01*
G01X4823Y6404D01*
G01X4819Y6408D01*
G01X4813Y6418D01*
G01X4811Y6423D01*
G01X4807Y6436D01*
G01X4802Y6449D01*
G01X4797Y6461D01*
G01X4790Y6474D01*
G01X4783Y6485D01*
G01X4767Y6507D01*
G01X4758Y6517D01*
G01X4748Y6527D01*
G01X4738Y6536D01*
G01X4727Y6544D01*
G01X4716Y6551D01*
G01X4704Y6558D01*
G01X4692Y6564D01*
G01X4679Y6570D01*
G01X4653Y6578D01*
G01X4640Y6581D01*
G01X4627Y6583D01*
G01X4613Y6584D01*
G01X4600Y6585D01*
G01X4572Y6583D01*
G01X4559Y6581D01*
G01X4546Y6578D01*
G01X4520Y6570D01*
G01X4507Y6564D01*
G01X4495Y6558D01*
G01X4483Y6551D01*
G01X4472Y6544D01*
G01X4461Y6536D01*
G01X4451Y6527D01*
G01X4441Y6517D01*
G01X4432Y6507D01*
G01X4416Y6485D01*
G01X4409Y6474D01*
G01X4402Y6461D01*
G01X4397Y6449D01*
G01X4392Y6436D01*
G01X4388Y6423D01*
G01X4386Y6418D01*
G01X4380Y6408D01*
G01X4376Y6404D01*
G01X4371Y6400D01*
G01X4366Y6398D01*
G01X4361Y6395D01*
G01X4355Y6394D01*
G01X4344Y6394D01*
G01X4338Y6395D01*
G01X4333Y6398D01*
G01X4328Y6400D01*
G01X4323Y6404D01*
G01X4319Y6408D01*
G01X4313Y6418D01*
G01X4311Y6423D01*
G01X4307Y6436D01*
G01X4302Y6449D01*
G01X4297Y6461D01*
G01X4290Y6474D01*
G01X4283Y6485D01*
G01X4267Y6507D01*
G01X4258Y6517D01*
G01X4248Y6527D01*
G01X4238Y6536D01*
G01X4227Y6544D01*
G01X4216Y6551D01*
G01X4204Y6558D01*
G01X4192Y6564D01*
G01X4179Y6570D01*
G01X4153Y6578D01*
G01X4140Y6581D01*
G01X4127Y6583D01*
G01X4113Y6584D01*
G01X4100Y6585D01*
G01X4072Y6583D01*
G01X4059Y6581D01*
G01X4046Y6578D01*
G01X4020Y6570D01*
G01X4007Y6564D01*
G01X3995Y6558D01*
G01X3983Y6551D01*
G01X3972Y6544D01*
G01X3961Y6536D01*
G01X3951Y6527D01*
G01X3941Y6517D01*
G01X3932Y6507D01*
G01X3916Y6485D01*
G01X3909Y6474D01*
G01X3902Y6461D01*
G01X3897Y6449D01*
G01X3892Y6436D01*
G01X3888Y6423D01*
G01X3886Y6418D01*
G01X3880Y6408D01*
G01X3876Y6404D01*
G01X3871Y6400D01*
G01X3866Y6398D01*
G01X3861Y6395D01*
G01X3855Y6394D01*
G01X3844Y6394D01*
G01X3838Y6395D01*
G01X3833Y6398D01*
G01X3828Y6400D01*
G01X3823Y6404D01*
G01X3819Y6408D01*
G01X3813Y6418D01*
G01X3811Y6423D01*
G01X3807Y6436D01*
G01X3802Y6449D01*
G01X3797Y6461D01*
G01X3790Y6474D01*
G01X3783Y6485D01*
G01X3767Y6507D01*
G01X3758Y6517D01*
G01X3748Y6527D01*
G01X3738Y6536D01*
G01X3727Y6544D01*
G01X3716Y6551D01*
G01X3704Y6558D01*
G01X3692Y6564D01*
G01X3679Y6570D01*
G01X3653Y6578D01*
G01X3640Y6581D01*
G01X3627Y6583D01*
G01X3613Y6584D01*
G37*
G36*
G01X9067Y8450D02*
G01X9050Y8451D01*
G01X9014Y8449D01*
G01X8996Y8447D01*
G01X8978Y8444D01*
G01X8960Y8440D01*
G01X8943Y8436D01*
G01X8926Y8431D01*
G01X8909Y8425D01*
G01X8892Y8418D01*
G01X8876Y8411D01*
G01X8859Y8403D01*
G01X8844Y8394D01*
G01X8814Y8374D01*
G01X8799Y8363D01*
G01X8786Y8351D01*
G01X8772Y8339D01*
G01X8760Y8327D01*
G01X8748Y8313D01*
G01X8736Y8300D01*
G01X8725Y8285D01*
G01X8705Y8255D01*
G01X8696Y8240D01*
G01X8688Y8223D01*
G01X8681Y8207D01*
G01X8674Y8190D01*
G01X8668Y8173D01*
G01X8663Y8156D01*
G01X8659Y8139D01*
G01X8655Y8121D01*
G01X8652Y8103D01*
G01X8650Y8085D01*
G01X8649Y8067D01*
G01X8648Y8050D01*
G01X8650Y8014D01*
G01X8652Y7996D01*
G01X8655Y7978D01*
G01X8659Y7960D01*
G01X8663Y7943D01*
G01X8668Y7926D01*
G01X8674Y7909D01*
G01X8681Y7892D01*
G01X8688Y7876D01*
G01X8696Y7859D01*
G01X8705Y7844D01*
G01X8725Y7814D01*
G01X8736Y7799D01*
G01X8748Y7786D01*
G01X8760Y7772D01*
G01X8772Y7760D01*
G01X8786Y7748D01*
G01X8799Y7736D01*
G01X8814Y7725D01*
G01X8844Y7705D01*
G01X8859Y7696D01*
G01X8876Y7688D01*
G01X8892Y7681D01*
G01X8909Y7674D01*
G01X8926Y7668D01*
G01X8943Y7663D01*
G01X8960Y7659D01*
G01X8978Y7655D01*
G01X8996Y7652D01*
G01X9014Y7650D01*
G01X9050Y7648D01*
G01X9067Y7649D01*
G01X9085Y7650D01*
G01X9103Y7652D01*
G01X9121Y7655D01*
G01X9139Y7659D01*
G01X9156Y7663D01*
G01X9173Y7668D01*
G01X9190Y7674D01*
G01X9207Y7681D01*
G01X9223Y7688D01*
G01X9240Y7696D01*
G01X9255Y7705D01*
G01X9285Y7725D01*
G01X9300Y7736D01*
G01X9313Y7748D01*
G01X9327Y7760D01*
G01X9339Y7772D01*
G01X9351Y7786D01*
G01X9363Y7799D01*
G01X9374Y7814D01*
G01X9394Y7844D01*
G01X9403Y7859D01*
G01X9411Y7876D01*
G01X9418Y7892D01*
G01X9425Y7909D01*
G01X9431Y7926D01*
G01X9436Y7943D01*
G01X9440Y7960D01*
G01X9444Y7978D01*
G01X9447Y7996D01*
G01X9449Y8014D01*
G01X9451Y8050D01*
G01X9450Y8067D01*
G01X9449Y8085D01*
G01X9447Y8103D01*
G01X9444Y8121D01*
G01X9440Y8139D01*
G01X9436Y8156D01*
G01X9431Y8173D01*
G01X9425Y8190D01*
G01X9418Y8207D01*
G01X9411Y8223D01*
G01X9403Y8240D01*
G01X9394Y8255D01*
G01X9374Y8285D01*
G01X9363Y8300D01*
G01X9351Y8313D01*
G01X9339Y8327D01*
G01X9327Y8339D01*
G01X9313Y8351D01*
G01X9300Y8363D01*
G01X9285Y8374D01*
G01X9255Y8394D01*
G01X9240Y8403D01*
G01X9223Y8411D01*
G01X9207Y8418D01*
G01X9190Y8425D01*
G01X9173Y8431D01*
G01X9156Y8436D01*
G01X9139Y8440D01*
G01X9121Y8444D01*
G01X9103Y8447D01*
G01X9085Y8449D01*
G01X9067Y8450D01*
G37*
G36*
G01X9241Y7352D02*
G01X9225Y7360D01*
G01X9225Y7175D01*
G01X9410Y7175D01*
G01X9402Y7191D01*
G01X9392Y7208D01*
G01X9382Y7224D01*
G01X9371Y7240D01*
G01X9359Y7255D01*
G01X9333Y7283D01*
G01X9305Y7309D01*
G01X9290Y7321D01*
G01X9274Y7332D01*
G01X9258Y7342D01*
G01X9241Y7352D01*
G37*
G36*
G01X9410Y6824D02*
G01X9225Y6825D01*
G01X9225Y6639D01*
G01X9241Y6647D01*
G01X9258Y6657D01*
G01X9274Y6667D01*
G01X9290Y6678D01*
G01X9305Y6690D01*
G01X9333Y6716D01*
G01X9359Y6744D01*
G01X9371Y6759D01*
G01X9382Y6775D01*
G01X9392Y6791D01*
G01X9402Y6808D01*
G01X9410Y6824D01*
G37*
G36*
G01X8875Y7175D02*
G01X8874Y7360D01*
G01X8858Y7352D01*
G01X8841Y7342D01*
G01X8825Y7332D01*
G01X8809Y7321D01*
G01X8794Y7309D01*
G01X8766Y7283D01*
G01X8740Y7255D01*
G01X8728Y7240D01*
G01X8717Y7224D01*
G01X8707Y7208D01*
G01X8697Y7191D01*
G01X8689Y7175D01*
G01X8875Y7175D01*
G37*
G36*
G01X8875Y6639D02*
G01X8875Y6825D01*
G01X8689Y6824D01*
G01X8697Y6808D01*
G01X8707Y6791D01*
G01X8717Y6775D01*
G01X8728Y6759D01*
G01X8740Y6744D01*
G01X8766Y6716D01*
G01X8794Y6690D01*
G01X8809Y6678D01*
G01X8825Y6667D01*
G01X8841Y6657D01*
G01X8858Y6647D01*
G01X8874Y6639D01*
G01X8875Y6639D01*
G37*
G36*
G01X3015Y6323D02*
G01X3015Y6568D01*
G01X2991Y6556D01*
G01X2980Y6549D01*
G01X2968Y6541D01*
G01X2958Y6533D01*
G01X2948Y6524D01*
G01X2938Y6514D01*
G01X2929Y6504D01*
G01X2921Y6493D01*
G01X2914Y6482D01*
G01X2907Y6470D01*
G01X2901Y6458D01*
G01X2895Y6445D01*
G01X2891Y6433D01*
G01X2887Y6419D01*
G01X2884Y6406D01*
G01X2882Y6393D01*
G01X2881Y6379D01*
G01X2880Y6366D01*
G01X2880Y6329D01*
G01X2994Y6329D01*
G01X3002Y6328D01*
G01X3009Y6326D01*
G01X3015Y6323D01*
G37*
G36*
G01X6690Y4073D02*
G01X6684Y4076D01*
G01X6684Y3831D01*
G01X6708Y3843D01*
G01X6719Y3850D01*
G01X6731Y3858D01*
G01X6741Y3866D01*
G01X6751Y3875D01*
G01X6761Y3885D01*
G01X6770Y3895D01*
G01X6778Y3906D01*
G01X6785Y3917D01*
G01X6792Y3929D01*
G01X6798Y3941D01*
G01X6804Y3954D01*
G01X6808Y3966D01*
G01X6812Y3980D01*
G01X6815Y3993D01*
G01X6817Y4006D01*
G01X6818Y4020D01*
G01X6819Y4033D01*
G01X6819Y4070D01*
G01X6705Y4070D01*
G01X6697Y4071D01*
G01X6690Y4073D01*
G37*

%LPD*%
G54D10*
G01X3100Y6130D02*
G01X3100Y4450D01*
G01X3600Y6130D02*
G01X3600Y4269D01*
G01X4100Y6130D02*
G01X4100Y4269D01*
G01X4600Y6130D02*
G01X4600Y4300D01*
G01X5100Y6130D02*
G01X5100Y4269D01*
G01X5600Y6130D02*
G01X5600Y4269D01*
G01X6100Y4269D02*
G01X6100Y6130D01*
G01X6600Y6130D02*
G01X6600Y4269D01*
G01X6600Y8469D02*
G01X6600Y8700D01*
G01X7250Y9350D01*
G01X7550Y9350D01*
G01X8050Y8850D01*
G01X8050Y1350D01*
G01X7700Y1000D01*
G01X7000Y1000D01*
G01X6600Y1400D01*
G01X6600Y1930D01*
G01X3100Y8469D02*
G01X3100Y9000D01*
G01X2750Y9350D01*
G01X2250Y9350D01*
G01X1900Y9000D01*
G01X1900Y1400D01*
G01X2250Y1050D01*
G01X2700Y1050D01*
G01X3050Y1400D01*
G01X3100Y1450D01*
G01X3100Y1930D01*
G54D11*
G01X6600Y4033D02*
G01X6600Y4506D01*
G01X6100Y4033D02*
G01X6100Y4506D01*
G01X5600Y4033D02*
G01X5600Y4506D01*
G01X5100Y4033D02*
G01X5100Y4506D01*
G01X4600Y4033D02*
G01X4600Y4506D01*
G01X4100Y4033D02*
G01X4100Y4506D01*
G01X3600Y4033D02*
G01X3600Y4506D01*
G01X3100Y4033D02*
G01X3100Y4506D01*
G01X6600Y1693D02*
G01X6600Y2166D01*
G01X6100Y1693D02*
G01X6100Y2166D01*
G01X5600Y1693D02*
G01X5600Y2166D01*
G01X5100Y1693D02*
G01X5100Y2166D01*
G01X4600Y1693D02*
G01X4600Y2166D01*
G01X4100Y1693D02*
G01X4100Y2166D01*
G01X3600Y1693D02*
G01X3600Y2166D01*
G01X3100Y1693D02*
G01X3100Y2166D01*
G01X6600Y8233D02*
G01X6600Y8706D01*
G01X6100Y8233D02*
G01X6100Y8706D01*
G01X5600Y8233D02*
G01X5600Y8706D01*
G01X5100Y8233D02*
G01X5100Y8706D01*
G01X4600Y8233D02*
G01X4600Y8706D01*
G01X4100Y8233D02*
G01X4100Y8706D01*
G01X3600Y8233D02*
G01X3600Y8706D01*
G01X3100Y8233D02*
G01X3100Y8706D01*
G01X6600Y5893D02*
G01X6600Y6366D01*
G01X6100Y5893D02*
G01X6100Y6366D01*
G01X5600Y5893D02*
G01X5600Y6366D01*
G01X5100Y5893D02*
G01X5100Y6366D01*
G01X4600Y5893D02*
G01X4600Y6366D01*
G01X4100Y5893D02*
G01X4100Y6366D01*
G01X3600Y5893D02*
G01X3600Y6366D01*
G01X3100Y5893D02*
G01X3100Y6366D01*
G54D12*
G01X9050Y8050D03*
G01X9050Y7000D03*
M00*
M02*
