G04 Layer: TopLayer*
G04 EasyEDA v6.1.49, Sun, 02 Jun 2019 06:23:37 GMT*
G04 66c5286db96e4661acc7c33619b52065,10*
G04 Gerber Generator version 0.2*
G04 Scale: 100 percent, Rotated: No, Reflected: No *
G04 Dimensions in inches *
G04 leading zeros omitted , absolute positions ,2 integer and 4 decimal *
%FSLAX24Y24*%
%MOIN*%
G90*
G70D02*
%ADD10C,0.010000*%
%ADD11C,0.023622*%
%LPD*%
G54D11*
G01X1000Y1000D02*
G01X1000Y0527D01*
G01X1500Y1000D02*
G01X1500Y0527D01*
G01X2000Y1000D02*
G01X2000Y0527D01*
G01X2500Y1000D02*
G01X2500Y0527D01*
G01X3000Y1000D02*
G01X3000Y0527D01*
G01X3500Y1000D02*
G01X3500Y0527D01*
G01X4000Y1000D02*
G01X4000Y0527D01*
G01X4500Y1000D02*
G01X4500Y0527D01*
G01X1000Y2400D02*
G01X1000Y2873D01*
G01X1500Y2400D02*
G01X1500Y2873D01*
G01X2000Y2400D02*
G01X2000Y2873D01*
G01X2500Y2400D02*
G01X2500Y2873D01*
G01X3000Y2400D02*
G01X3000Y2873D01*
G01X3500Y2400D02*
G01X3500Y2873D01*
G01X4000Y2400D02*
G01X4000Y2873D01*
G01X4500Y2400D02*
G01X4500Y2873D01*
G54D11*
G01X1000Y8000D02*
G01X1000Y7527D01*
G01X1500Y8000D02*
G01X1500Y7527D01*
G01X2000Y8000D02*
G01X2000Y7527D01*
G01X2500Y8000D02*
G01X2500Y7527D01*
G01X1000Y5400D02*
G01X1000Y5873D01*
G01X1500Y5400D02*
G01X1500Y5873D01*
G01X2000Y5400D02*
G01X2000Y5873D01*
G01X2500Y5400D02*
G01X2500Y5873D01*
M00*
M02*
